<svg id="svg" version="1.1" xmlns="http://www.w3.org/2000/svg" xmlns:xlink="http://www.w3.org/1999/xlink" width="400" height="400" viewBox="0, 0, 400,400"><g id="svgg"><path id="path0" d="M188.487 121.960 C 186.864 122.879,83.724 222.052,82.588 223.785 C 81.717 225.116,81.649 227.527,81.649 257.251 C 81.649 293.234,81.356 290.573,85.633 293.484 L 87.391 294.681 199.680 294.680 C 325.108 294.679,314.200 295.021,316.878 291.012 L 318.085 289.204 318.082 207.767 C 318.078 116.886,318.406 124.826,314.553 122.286 C 312.645 121.029,190.688 120.714,188.487 121.960 M302.128 207.713 L 302.128 278.191 200.000 278.191 L 97.872 278.191 97.907 254.654 L 97.942 231.117 146.935 184.176 L 195.928 137.234 249.028 137.234 L 302.128 137.234 302.128 207.713 M195.196 153.062 C 191.361 155.702,169.176 179.366,168.836 181.179 C 167.513 188.233,173.489 193.566,179.791 190.956 C 181.519 190.240,204.843 166.756,206.468 164.096 C 210.681 157.199,201.806 148.511,195.196 153.062 M251.817 168.309 C 249.139 169.475,179.408 238.617,178.677 240.831 C 176.429 247.645,182.862 253.636,189.654 251.054 C 192.280 250.056,262.144 180.477,262.834 178.173 C 264.808 171.586,258.095 165.576,251.817 168.309 M275.230 223.356 C 273.397 224.146,248.349 250.110,247.489 252.112 C 244.384 259.341,253.635 266.813,259.636 261.922 C 265.117 257.454,286.146 234.980,286.472 233.241 C 287.799 226.168,281.519 220.646,275.230 223.356 " stroke="none" fill="#000000" fill-rule="evenodd"></path></g></svg>