<svg viewBox="0 0 30 24" fill="none" xmlns="http://www.w3.org/2000/svg">
    <path
        d="M4.229 23.6294C2.90544 23.6294 1.89421 23.283 1.19531 22.5903C0.496419 21.8976 0.146973 20.8926 0.146973 19.5752V6.97656C0.146973 5.66536 0.496419 4.66341 1.19531 3.9707C1.89421 3.27799 2.90544 2.93164 4.229 2.93164H7.12354C7.43278 2.93164 7.68636 2.91309 7.88428 2.87598C8.08838 2.83268 8.27393 2.75846 8.44092 2.65332C8.60791 2.54199 8.79346 2.38118 8.99756 2.1709L9.94385 1.20605C10.1665 0.983398 10.3923 0.804036 10.6211 0.667969C10.8561 0.531901 11.1159 0.42985 11.4004 0.361816C11.6911 0.293783 12.0343 0.259766 12.4302 0.259766H17.4956C17.8914 0.259766 18.2347 0.293783 18.5254 0.361816C18.8161 0.42985 19.0758 0.531901 19.3047 0.667969C19.5335 0.804036 19.7562 0.983398 19.9727 1.20605L20.9189 2.1709C21.1292 2.38118 21.3179 2.54199 21.4849 2.65332C21.6519 2.75846 21.8343 2.83268 22.0322 2.87598C22.2363 2.91309 22.493 2.93164 22.8022 2.93164H25.771C27.0884 2.93164 28.0965 3.27799 28.7954 3.9707C29.4943 4.66341 29.8438 5.66536 29.8438 6.97656V19.5752C29.8438 20.8926 29.4943 21.8976 28.7954 22.5903C28.0965 23.283 27.0884 23.6294 25.771 23.6294H4.229ZM15 19.6958C15.8844 19.6958 16.7132 19.5288 17.4863 19.1948C18.2594 18.867 18.9367 18.4124 19.5181 17.8311C20.1056 17.2435 20.5633 16.5632 20.8911 15.79C21.2251 15.0107 21.3921 14.1758 21.3921 13.2852C21.3921 12.3945 21.2282 11.5627 20.9004 10.7896C20.5726 10.0164 20.1149 9.3361 19.5273 8.74854C18.946 8.16097 18.2656 7.70329 17.4863 7.37549C16.7132 7.0415 15.8844 6.87451 15 6.87451C14.1156 6.87451 13.2837 7.0415 12.5044 7.37549C11.7313 7.70329 11.0509 8.16097 10.4634 8.74854C9.882 9.3361 9.42741 10.0164 9.09961 10.7896C8.77181 11.5627 8.60791 12.3945 8.60791 13.2852C8.60791 14.1758 8.77181 15.0107 9.09961 15.79C9.42741 16.5632 9.882 17.2435 10.4634 17.8311C11.0509 18.4124 11.7313 18.867 12.5044 19.1948C13.2837 19.5288 14.1156 19.6958 15 19.6958ZM15 17.2651C14.4495 17.2651 13.9331 17.1631 13.4507 16.959C12.9744 16.7487 12.5539 16.4642 12.189 16.1055C11.8302 15.7406 11.5457 15.3169 11.3354 14.8345C11.1313 14.3521 11.0293 13.8356 11.0293 13.2852C11.0293 12.7347 11.1313 12.2183 11.3354 11.7358C11.5457 11.2534 11.8302 10.8298 12.189 10.4648C12.5539 10.0999 12.9744 9.81543 13.4507 9.61133C13.9331 9.40723 14.4495 9.30518 15 9.30518C15.5505 9.30518 16.0638 9.40723 16.54 9.61133C17.0225 9.81543 17.443 10.0999 17.8018 10.4648C18.1667 10.8298 18.4512 11.2534 18.6553 11.7358C18.8594 12.2183 18.9614 12.7347 18.9614 13.2852C18.9614 13.8356 18.8594 14.3521 18.6553 14.8345C18.4512 15.3169 18.1667 15.7406 17.8018 16.1055C17.443 16.4642 17.0225 16.7487 16.54 16.959C16.0638 17.1631 15.5505 17.2651 15 17.2651ZM22.1899 8.89697C22.1899 9.3361 22.3446 9.70719 22.6538 10.0103C22.9692 10.3133 23.3434 10.4618 23.7764 10.4556C24.1969 10.4556 24.5618 10.304 24.8711 10.001C25.1803 9.69792 25.335 9.32992 25.335 8.89697C25.335 8.4764 25.1803 8.11149 24.8711 7.80225C24.5618 7.48682 24.1969 7.3291 23.7764 7.3291C23.3496 7.3291 22.9785 7.48682 22.6631 7.80225C22.3477 8.11149 22.1899 8.4764 22.1899 8.89697Z"
        fill="white"/>
</svg>
