<svg fill="#ff7f00" height="800px" width="800px" version="1.1" xmlns="http://www.w3.org/2000/svg" viewBox="0 0 512 512" xmlns:xlink="http://www.w3.org/1999/xlink" enable-background="new 0 0 512 512">
  <g>
    <path d="m208,239.893c0,26.508 21.468,48 48,48 26.484,0 48-21.492 48-48 0-26.509-21.516-48-48-48-26.532-2.84217e-14-48,21.491-48,48z"/>
    <path d="m384,19.339c-15.297-8.852-34.875-3.594-43.711,11.703l-55.578,96.227c-8.805,15.242-3.648,34.727 11.539,43.625 24.312,14.227 39.484,40.336 39.75,68.273-0.023,0.406-0.039,0.82-0.047,1.102-0.188,8.602 3.102,16.922 9.117,23.078 6.023,6.148 14.266,9.617 22.875,9.617h112.055c17.672,0 32-14.328 32-32 0-91.109-49.047-176.031-128-221.625z"/>
    <path d="m339.219,321.058c-8.82-15.258-28.289-20.523-43.617-11.758-24.406,13.984-54.906,13.953-79.227,0.016-15.297-8.734-34.773-3.492-43.609,11.773l-56.476,97.789c-8.813,15.258-3.625,34.773 11.601,43.648 38.664,22.531 82.961,34.438 128.109,34.438 45.148,0 89.445-11.906 128.109-34.438 15.227-8.875 20.414-28.391 11.602-43.656l-56.492-97.812z"/>
    <path d="m166.93,263.347c6.016-6.156 9.305-14.477 9.117-23.078-0.008-0.266-0.023-0.68-0.047-1.086 0.258-27.977 15.43-54.094 39.719-68.313 15.195-8.883 20.359-28.375 11.555-43.625l-55.563-96.203c-8.836-15.297-28.406-20.562-43.711-11.703-78.953,45.594-128,130.516-128,221.625 0,17.672 14.328,32 32,32h112.055c8.609,0 16.851-3.469 22.875-9.617z"/>
  </g>
</svg>