<svg xmlns="http://www.w3.org/2000/svg" viewBox="0 0 600 640.187" fill="green"><path d="M300.179 586.001c5.449-32.732 7.49-77.446 3.821-77.446-.944 0-4.725 1.926-8.403 4.279-8.827 5.649-31.671 17.742-33.515 17.742-.799 0-1.897-.794-2.44-1.765-.834-1.49-2.655-.92-11.683 3.654-9.363 4.744-11.022 5.244-13.32 4.014-2.265-1.212-3.805-.839-11.233 2.72-9.454 4.531-10.587 4.759-13.765 2.774-1.768-1.104-3.088-.813-7.228 1.591-8.22 4.774-10.077 5.03-10.96 1.514-.416-1.658-1.085-2.834-1.487-2.614-6.887 3.763-13.382 5.962-18.116 6.133-6.595.238-13.432 2.224-30.5 8.859-6.576 2.556-12.195 4.409-12.487 4.117-1.373-1.373 1.733-4.492 13.33-13.387l14.729-11.631c1.198-1.102 3.467-2.899 5.043-3.992s2.88-3.156 2.898-4.596c.025-2.007 1.586-3.385 6.766-5.974 4.247-2.123 6.218-3.685 5.336-4.229-2.637-1.63-.054-4.351 6.438-6.78 3.574-1.337 7.521-2.431 8.772-2.431 2.596 0 2.737-.448 1.101-3.505-1.03-1.925-.569-2.364 3.767-3.592 2.717-.769 7.916-1.443 11.553-1.497 6.142-.092 6.568-.274 5.995-2.562-.575-2.296-.042-2.515 7.875-3.225 4.729-.424 10.208-.254 12.363.384 3.102.918 3.752.836 3.273-.414-.949-2.473 5.13-3.088 23.554-2.38l16.822.646-11.59-4.105c-10.971-3.886-35.868-11.604-46.685-14.472-2.728-.723-4.767-1.682-4.53-2.131.859-1.626-3.36-4.3-7.318-4.639-2.229-.191-8.567-1.149-14.085-2.129-8.427-1.497-10.163-2.183-10.847-4.289-.448-1.379-.754-3.077-.68-3.773s-4.387-2.215-9.913-3.374c-10.702-2.246-14.931-4.906-13.744-8.646.547-1.723-.082-2.31-3.128-2.918-10.626-2.123-15.786-4.187-17.673-7.066-1.854-2.83-1.852-3.131.041-5.223 1.713-1.893 1.747-2.22.233-2.22-.977 0-5.52-.846-10.097-1.879-6.235-1.408-8.773-2.569-10.125-4.633-1.692-2.583-1.634-2.896.935-5.036 1.507-1.255 2.348-2.365 1.87-2.466l-1.739-.342c-4.949-.902-19.158-7.281-21.302-9.564-2.672-2.845-2.687-2.968-.541-4.537 2.169-1.586 2.169-1.626 0-2.381-5.859-2.039-12.76-5.367-14.623-7.054-2.216-2.006-2.831-6.151-.912-6.151 3.094 0 .466-2.019-5.781-4.441-3.817-1.48-8.032-4.08-9.367-5.777l-2.427-3.086 2.427-1.612c2.32-1.54 2.082-1.813-5.394-6.182-8.49-4.961-9.838-6.334-8.969-9.133.369-1.187-.535-2.338-2.56-3.261-4.917-2.24-12.051-8.313-11.705-9.964.459-2.19-12.951-12.541-26.833-20.713-9.082-5.346-11.448-7.204-9.535-7.485 1.4-.206 5.271.51 8.603 1.59 7.101 2.302 30.663 11.618 33.539 13.261 1.09.623 2.731.845 3.646.494s4.978 1.088 9.028 3.198l8.234 4.231c.478.217.869-.431.869-1.44s.287-1.835.637-1.835c1.441 0 8.344 4.021 12.471 7.265 4.314 3.391 4.43 3.414 5.061 1 .355-1.358 1.059-2.47 1.563-2.47 1.391 0 13.594 10.18 14.217 11.859.311.838 1.102.067 1.843-1.796l1.298-3.265 3.766 2.66c2.071 1.463 6.219 5.1 9.217 8.082l5.451 5.423 1.303-3.947c.717-2.171 1.58-3.947 1.92-3.947 1.155 0 13.678 11.816 17.34 16.361l3.649 4.528 1.217-3.491c.669-1.92 1.706-3.491 2.303-3.491 1.575 0 15.266 14.892 16.374 17.811.909 2.395.984 2.373 2.416-.716.813-1.753 2.117-3.187 2.897-3.187 1.761 0 15.576 14.627 15.64 16.558.026.773.825-.028 1.776-1.781s2.118-3.187 2.593-3.187c1.218 0 12.299 12.748 15.136 17.414l2.362 3.883 1.184-3.115c.651-1.713 1.661-3.115 2.243-3.115 1.328 0 15.21 18.279 15.266 20.101.023.737.675.201 1.449-1.191s1.751-2.696 2.171-2.898c.919-.44 14.381 16.772 16.873 21.574 1.753 3.377 1.77 3.382 3.119.86 1.342-2.507 1.404-2.486 5.496 1.82 2.277 2.395 6.245 7.073 8.818 10.394 4.991 6.441 19.086 19.942 25.763 24.677l4.041 2.865-2.592-3.64c-1.426-2.002-2.592-3.98-2.592-4.394s-2.046-3.767-4.548-7.451c-4.709-6.934-13.285-15.912-27.408-28.692-4.508-4.079-8.866-9.101-9.684-11.159-1.359-3.417-3.426-5.361-15.985-15.036-3.403-2.622-7.28-7.787-7.28-9.701 0-.246.913-.474 2.028-.508 1.627-.049 1.461-.45-.836-2.028-9.801-6.733-19.078-14.459-20.383-16.975-1.315-2.535-1.258-3.073.424-4.014 1.068-.598 1.686-1.3 1.372-1.561s-4.221-2.998-8.683-6.084c-10.315-7.132-14.724-12.161-10.663-12.161.829 0 2.101-.594 2.827-1.321.988-.988-.34-2.395-5.274-5.59-6.299-4.078-14.128-11.762-14.128-13.867 0-.546 1.304-1.32 2.898-1.72s2.898-1.148 2.898-1.663-3.183-3.242-7.073-6.06-7.794-6.52-8.677-8.225c-1.546-2.989-1.478-3.129 1.857-3.862 4.423-.971 4.36-1.878-.306-4.415-5.014-2.726-15.967-12.6-15.95-14.379.008-.776 1.357-2.115 2.998-2.976l2.985-1.564-4.779-3.162c-5.832-3.86-13.94-11.081-13.94-12.416 0-.538 1.983-1.572 4.406-2.298l4.406-1.32-10.201-10.056c-5.61-5.531-10.201-10.898-10.201-11.926 0-1.219 1.41-2.135 4.051-2.63l4.051-.76-7.334-7.192c-9.135-8.959-10.08-11.067-5.381-12.007 1.899-.38 3.454-.884 3.454-1.119s-2.558-3.603-5.685-7.483c-5.846-7.255-7.87-11.488-5.507-11.519.737-.01 2.106-.502 3.042-1.094 1.445-.914 1.349-1.391-.639-3.17-3.812-3.41-8.596-10.28-8.596-12.344 0-1.292.981-1.919 3.001-1.919h3.001l-3.056-3.632c-3.615-4.297-7.581-11.77-7.581-14.287 0-.993.996-1.785 2.245-1.785 2.102 0 2.028-.48-1.159-7.508-3.488-7.693-4.461-12.985-2.121-11.539.855.528 1.033.006.535-1.564-.411-1.297-1.738-5.925-2.947-10.287s-5.362-14.813-9.228-23.228-7.029-15.666-7.029-16.116c0-2.308 5.831 5.154 15.873 20.314 6.155 9.292 12.356 17.999 13.778 19.348s3.979 5.397 5.682 8.995 3.599 6.23 4.214 5.85 1.92-.028 2.898.784c2.176 1.806 6.76 10.807 7.894 15.501l.833 3.449 2.059-2.73 2.059-2.73 1.81 2.583c.995 1.421 2.767 5.657 3.938 9.413 2.119 6.8 3.398 8.014 5.852 5.559.709-.709 1.793-.979 2.409-.598 1.679 1.038 5.214 8.902 5.96 13.259l.657 3.838 2.751-2.568c2.671-2.493 2.789-2.503 4.026-.361 2.577 4.461 6.408 14.736 7.165 19.22l.779 4.612 2.565-2.41c1.411-1.325 3.142-2.41 3.846-2.41 1.362 0 4.944 13.957 4.944 19.265v3.161l2.991-2.81c2.895-2.72 3.042-2.74 4.589-.625.879 1.202 1.926 4.375 2.327 7.052 1.092 7.279 2.176 8.532 5.097 5.888 1.318-1.193 2.638-1.926 2.935-1.629 1.213 1.213 6.186 15.822 6.946 20.406.449 2.709 1.129 4.926 1.51 4.926s1.898-1.132 3.371-2.516 3.004-2.19 3.402-1.792c1.212 1.212 3.884 13.881 3.903 18.506.019 4.615 1.137 5.449 3.495 2.608.794-.956 1.86-1.739 2.37-1.739 1.251 0 3.223 6.228 4.97 15.694 1.336 7.24 1.581 7.672 3.342 5.91 1.045-1.045 2.143-1.901 2.439-1.901 1.115 0 6.945 19.377 7.618 25.319l.702 6.196 3.19-2.515c2.378-1.875 3.314-2.125 3.676-.98l4.15 12.838c2.016 6.217 4.013 13.697 4.438 16.624l.773 5.321 3.132-2.466 3.132-2.466 1.144 4.387c2.792 10.701 4.623 18.656 5.345 23.221.772 4.881 2.008 6.137 3.563 3.622 1.033-1.672 3.092 4.195 7.371 21.007 3.075 12.083 9.353 28.953 15.311 41.145l2.266 4.636-.536-9.272c-.303-5.244-1.807-13.3-3.461-18.544-1.608-5.1-3.728-13.184-4.709-17.965-1.551-7.555-1.566-8.857-.116-9.95 1.045-.787 1.26-1.666.577-2.349-1.073-1.073-9.258-23.89-9.258-25.807 0-.538 1.252-.74 2.782-.447l2.782.532-4.461-11.087c-2.454-6.098-4.807-12.929-5.229-15.18-.72-3.837-.578-4.094 2.259-4.094 1.665 0 3.027-.163 3.027-.363s-1.272-2.999-2.826-6.22c-2.581-5.351-6.446-18.008-6.446-21.111 0-.705 1.62-1.281 3.601-1.281 2.982 0 3.454-.349 2.747-2.028-2.83-6.723-7.503-19.652-8.123-22.474-.696-3.168-.544-3.314 3.45-3.314h4.178l-1.64-3.187c-1.972-3.834-6.533-18.373-6.533-20.826 0-1.288.927-1.612 3.527-1.23 2.889.424 3.379.186 2.708-1.317-1.683-3.771-6.036-17.04-6.819-20.791l-.812-3.889 4.929.833c4.518.763 4.852.652 3.998-1.327-2.927-6.784-5.26-14.91-5.938-20.679l-.772-6.568 4.143.777 4.143.777-2.787-6.778c-1.533-3.728-2.799-8.538-2.814-10.689-.026-3.762.111-3.884 3.572-3.192 3.054.611 3.485.423 2.847-1.241-5.227-13.622-5.2-17.324.126-16.789l3.64.366-1.754-5.002c-.965-2.751-1.828-7.609-1.919-10.797l-.165-5.795 4.462.269c3.84.231 4.342-.011 3.599-1.739-.475-1.104-1.114-6.902-1.42-12.884l-.557-10.877 4.192.786c4.137.776 4.177.746 3.043-2.237-1.419-3.732-1.472-12.16-.09-14.342.563-.89 1.859-1.297 2.88-.906 1.572.603 1.855-.331 1.855-6.111 0-7.794.764-10.569 2.704-9.822.96.37 1.236-1.367.949-5.983-.382-6.156-.274-6.462 2.028-5.732 2.233.709 2.432.329 2.432-4.636 0-2.975.728-7.052 1.619-9.06s2.222-9.129 2.959-15.822c1.551-14.075 4.421-34.936 5.502-39.986l.744-3.477.847 2.898c.466 1.594.899 9.389.963 17.324.14 17.503 2.292 40.939 3.849 41.926.624.396.952 3.65.729 7.232-.368 5.913-.207 6.449 1.751 5.826 2.003-.637 2.126-.024 1.733 8.641-.398 8.762-.283 9.313 1.9 9.101 2.093-.203 2.323.465 2.321 6.728-.001 3.825-.434 8.148-.962 9.607-.884 2.446-.712 2.591 2.205 1.859l3.164-.794-.614 9.836c-.337 5.41-1.233 10.992-1.989 12.406-1.328 2.481-1.232 2.543 2.758 1.795l4.133-.775v4.512c0 4.265-2.052 13.439-4.069 18.19-.934 2.201-.01 2.172 6.271-.194 1.324-.499 1.508.756.996 6.823-.345 4.089-1.426 9.713-2.404 12.498l-1.777 5.063 4.029-.654c2.773-.45 4.213-.173 4.62.888.509 1.327-2.983 12.911-5.912 19.614-.842 1.927-.551 2.072 2.708 1.357 3.54-.778 3.651-.682 3.651 3.165 0 4.63-3.634 15.768-7.012 21.494-2.837 4.809-2.375 5.529 2.463 3.842l3.683-1.284-.555 5.779c-.305 3.178-2.166 9.029-4.135 13.001s-3.422 7.38-3.229 7.573 1.745-.18 3.45-.828c6.607-2.512 5.096 5.484-4.885 25.865-.267.545 1.141.634 3.129.198 3.484-.765 3.614-.655 3.595 3.065-.011 2.122-1.827 8.292-4.037 13.711l-4.037 10.141c-.011.159 1.326.29 2.97.29 2.761 0 2.93.288 2.207 3.767-.43 2.072-2.558 7.507-4.728 12.079s-3.946 8.565-3.946 8.874 1.043.289 2.318-.045c3.652-.955 2.973 4.738-1.739 14.569-2.231 4.656-4.057 8.693-4.057 8.972s1.304.18 2.898-.22c2.404-.603 2.898-.311 2.898 1.716 0 1.344.522 2.444 1.159 2.444s1.159-2.608 1.159-5.795c0-4.273.439-5.795 1.67-5.795.919 0 1.992.522 2.386 1.159 1.768 2.861 3.93 1.046 3.796-3.187-.163-5.142 1.431-22.517 2.179-23.747.286-.471 1.718-.072 3.181.887l2.661 1.744.691-11.345c.778-12.767 1.561-15.773 3.867-14.835l3.073 1.252c1.102.45 1.865-2.598 2.963-11.849.814-6.85 1.744-12.72 2.068-13.044s2.05.25 3.836 1.275l3.247 1.864.777-9.419c.427-5.181 1.31-11.414 1.961-13.851l1.184-4.432 3.836 2.926 3.836 2.926.74-6.295c.971-8.261 2.862-16.937 4.14-18.996.87-1.401 1.47-1.354 4.019.316l2.996 1.963.006-4.373c.004-2.405.554-6.459 1.222-9.009 2.145-8.181 2.059-8.064 4.392-5.953 3.239 2.931 4.81 2.288 4.81-1.967 0-5.008 2.409-16.999 3.416-16.999.428 0 1.79.766 3.027 1.702 3.338 2.525 3.594 2.274 3.812-3.73.224-6.171 3.233-17.675 4.623-17.675.498 0 1.918.766 3.155 1.702 3.236 2.447 3.988 2.182 3.995-1.412.009-4.261 1.964-10.783 4.055-13.525 1.6-2.098 1.82-2.113 3.871-.257 2.089 1.891 2.201 1.771 2.865-3.072.38-2.772 1.243-6.492 1.918-8.268 1.192-3.134 1.311-3.173 4.107-1.341s2.88 1.805 2.88-.941c0-1.555 1.061-5.304 2.359-8.331 1.795-4.188 2.681-5.18 3.709-4.153 1.996 1.996 3.205 1.645 3.205-.929 0-1.253.881-4.126 1.957-6.383 1.467-3.077 2.483-3.938 4.057-3.438 1.339.425 2.099.083 2.099-.945 0-.886 2.259-5.224 5.02-9.64 7.981-12.763 14.683-24.316 14.683-25.309 0-1.788 8.612-14.835 9.008-13.647.482 1.447-2.028 10.031-5.435 18.582-3.863 9.696-10.665 36.634-9.361 37.072 1.856.622 1.331 5.147-1.166 10.045-2.773 5.438-2.748 5.216-.58 5.216 2.984 0 2.118 3.079-5.018 17.839-.275.568.873.689 2.549.268 2.77-.695 3.049-.456 3.049 2.612 0 1.858-1.993 7.344-4.43 12.192l-4.43 8.814h3.271c2.679 0 3.271.503 3.271 2.78 0 3.066-5.561 14.285-9.911 19.997-2.957 3.882-2.256 5.039 3.052 5.039 4.825 0 2.209 5.942-6.632 15.067l-6.176 6.375 4.018 1.176 4.018 1.176-2.406 4.039c-1.323 2.221-5.047 6.747-8.275 10.056l-5.869 6.017 3.116.782c4.403 1.105 3.186 4.271-4.579 11.911-3.456 3.401-6.284 6.399-6.284 6.664s1.078.482 2.396.482c4.547 0 .663 7.369-7.136 13.541l-4.737 3.749 3 .753c1.65.414 3 1.252 3 1.863 0 1.397-2.385 5.981-3.513 6.752-.466.319-3.323 2.868-6.349 5.666-4.655 4.304-5.21 5.25-3.607 6.147 2.813 1.574.746 4.721-9.469 14.421-7.862 7.465-8.467 8.345-6.223 9.058 2.329.739 2.379.995.795 4.059-.93 1.799-5.098 6.262-9.263 9.918-7.721 6.779-8.983 8.683-5.755 8.683 3.564 0 .387 5.142-8.865 14.349-5.048 5.023-9.178 9.326-9.178 9.562s.782.428 1.739.428c1.978 0 2.328 1.817.561 2.909-.648.4-.909 1.164-.579 1.697s-3.542 4.463-8.603 8.734-9.704 9.145-10.318 10.831-5.058 7.76-9.874 13.497c-11.536 13.741-31.726 43.416-25.629 37.668 11.939-11.255 23.141-23.602 28.445-31.353 7.97-11.647 8.935-12.602 10.482-10.371.88 1.269 1.361 1.358 1.78.328 2.011-4.933 7.604-14.089 12.577-20.59 4.82-6.301 6.012-7.281 7.082-5.826 1.751 2.38 2.402 2.204 3.184-.859.366-1.434 2.783-5.416 5.371-8.848s5.213-7.083 5.834-8.113c1.022-1.696 1.285-1.67 2.79.271 1.552 2.002 1.852 1.772 4.548-3.477 1.588-3.091 4.476-7.446 6.419-9.677 3.594-4.127 4.07-4.085 6.478.579.357.692.874.565 1.282-.314.603-1.298 12.724-18.572 13.967-19.905.264-.283 1.592.597 2.951 1.955l2.47 2.47 2.423-4.478c2.67-4.933 10.375-13.92 11.936-13.92.544 0 1.616 1.658 2.381 3.685l1.391 3.685 3.21-4.751c3.921-5.803 11.622-14.209 13.018-14.209.562 0 1.625 1.825 2.361 4.057 1.479 4.482 2.961 5.191 4.001 1.914.734-2.312 17.147-17.56 18.902-17.56.585 0 1.717 1.433 2.514 3.184 1.447 3.176 1.455 3.178 3.384.796 2.628-3.245 16.5-13.252 18.37-13.252.829 0 1.507.956 1.507 2.125 0 3.492 1.242 3.693 4.247.688 2.846-2.846 13.166-8.608 15.418-8.608.659 0 1.198.863 1.198 1.918 0 1.728.201 1.743 2.028.149 3.068-2.676 7.488-4.756 10.721-5.044 1.594-.142 10.199-3.488 19.124-7.436 20.744-9.176 21.442-9.444 21.442-8.209 0 .563-3.521 3.787-7.823 7.164-11.233 8.816-24.077 21.062-23.886 22.775.199 1.784-7.965 8.98-13.367 11.781-3.907 2.026-3.916 2.049-1.448 3.777 2.37 1.66 2.389 1.824.422 3.603-1.133 1.026-5.074 3.244-8.758 4.931-6.095 2.79-6.509 3.206-4.605 4.622 3.096 2.302.917 4.969-7.622 9.331-8.823 4.507-9.334 4.99-6.783 6.418 4.257 2.383-2.232 7.65-14.663 11.901-2.028.694-2.05.898-.299 2.833 1.535 1.696 1.618 2.439.448 3.983-1.734 2.286-17.338 10.099-20.241 10.136-1.731.022-1.622.363.683 2.136 5.566 4.281-.671 9.852-14.624 13.063-6.345 1.46-7.365 2.489-4.215 4.252 3.863 2.162-.19 5.553-11.388 9.527-15.596 5.534-15.467 5.452-12.962 8.219 1.968 2.175 1.954 2.364-.348 4.666-1.593 1.593-6.006 3.139-13.132 4.601-9.647 1.979-13.686 4.007-13.841 6.95-.02.387-4.6 2.416-10.178 4.51s-11.254 4.995-12.614 6.448c-3.416 3.649-8.054 5.852-34.036 16.172-12.43 4.937-25.469 10.486-28.975 12.331-5.824 3.064-6.024 3.294-2.318 2.656 2.231-.384 9.38-2.194 15.886-4.022 17.317-4.866 20.044-5.27 20.044-2.971 0 1.693.277 1.715 2.608.202 2.083-1.352 10.791-3.347 19.993-4.58.637-.085.989 1.058.782 2.54-.348 2.482-.166 2.582 2.297 1.264 2.376-1.271 17.573-5.627 19.812-5.678.478-.011.869 1.079.869 2.422 0 1.848.492 2.253 2.026 1.665 4.177-1.603 13.196-3.137 14.807-2.518.951.365 1.374 1.42.98 2.446-.567 1.477-.195 1.616 2.048.767 1.507-.57 5.55-1.421 8.985-1.891l6.245-.854-.578 3.021-.578 3.021 7.951-.739c7.586-.705 7.951-.625 7.951 1.745 0 2.281.607 2.484 7.405 2.484 6.341 0 7.382.291 7.244 2.028-.089 1.116.495 1.897 1.297 1.736s3.67.201 6.375.805 6.738 1.417 8.964 1.807 4.469 1.462 4.983 2.382 1.862 1.673 2.993 1.673c5.499 0 29.973 10.6 31.983 13.852.3.485-9.812.826-22.469.759-20.395-.109-23.27.108-25.265 1.906-1.492 1.344-4.149 2.028-7.88 2.028-4.154 0-6.32.649-8.265 2.476-2.303 2.164-4.036 2.483-13.73 2.528-9.413.044-11.049.327-10.796 1.87.828 5.049-3.002 5.79-14.716 2.848-6.896-1.732-7.576-1.728-9.364.061-2.174 2.174-6.437 1.69-13.232-1.502-2.528-1.188-7.114-1.917-12.17-1.935-8.821-.032-29.837-5.798-59.11-16.217-11.333-4.034-16.167-5.223-19.503-4.798-8.164 1.04-9.18-2.557-10.02 20.649-.809 22.346-3.632 47.113-8.204 71.979-5.674 4.843-3.986-5.86-3.159-10.944zm13.415-89.228c-2.129-1.382-11.687-.835-10.265.587.616.616 2.709 1.074 4.651 1.019s3.531.45 3.531 1.123c0 .744.702.641 1.793-.265 1.434-1.19 1.492-1.684.29-2.464zm14.574-68.241c.968-1.94 2.084-5.983 2.48-8.982l.719-5.454-3.323 6.375c-1.848 3.544-3.108 7.532-2.839 8.982.626 3.372.858 3.3 2.963-.92zm8.823-33.57c1.995 1.068 2.181.519 2.534-7.48.21-4.748-.055-8.194-.588-7.658-2.146 2.158-8.511 18.409-6.981 17.821.95-.364 1.648.25 1.76 1.548.102 1.184.396.457.653-1.616.405-3.262.757-3.613 2.621-2.616z"/><path d="M299.854 492.43h17.749v10.02h-17.749v-10.02z"/></svg>