<?xml version="1.0" encoding="utf-8"?>
<svg version="1.1" id="Layer_1" xmlns="http://www.w3.org/2000/svg" xmlns:xlink="http://www.w3.org/1999/xlink" x="0px" y="0px" viewBox="0 0 122.22 122.88" style="enable-background:new 0 0 122.22 122.88" xml:space="preserve">
    <g>
        <path fill="currentColor" d="M50.19,45.72l13.25,13.25c1.1,1.1,1.1,2.9,0,4c-1.1,1.1-2.9,1.1-4,0L46.19,49.72l-5.46,5.46l13.25,13.25 c1.1,1.1,1.1,2.9,0,4c-1.1,1.1-2.9,1.1-4,0L36.73,59.19l-5.46,5.46L44.52,77.9c1.1,1.1,1.1,2.9,0,4c-1.1,1.1-2.9,1.1-4,0 L27.27,68.65l-5.46,5.46l13.25,13.25c1.1,1.1,1.1,2.9,0,4c-1.1,1.1-2.9,1.1-4,0L17.81,78.11l-0.93,0.93h0 c-2.49,2.49-3.73,5.77-3.73,9.05c0,3.28,1.24,6.57,3.73,9.05l0,0l3.71,3.71c0.31,0.14,0.6,0.33,0.86,0.59 c0.25,0.26,0.45,0.55,0.59,0.86l4.4,4.4l0,0c2.17,2.17,5.03,3.25,7.9,3.25s5.73-1.09,7.9-3.25l0,0l42.24-42.24l-26.5-26.5 L50.19,45.72L50.19,45.72z M60.31,32.11l2.72,2.72l15.19-15.19c-1.93-2.22-2.9-5-2.9-7.78c0-3.04,1.16-6.08,3.47-8.39l0,0l0,0 C81.1,1.16,84.15,0,87.19,0c3.04,0,6.08,1.16,8.39,3.47l23.18,23.18c2.3,2.3,3.45,5.35,3.45,8.39h0.01c0,3.04-1.16,6.08-3.47,8.39 l0,0c-2.31,2.31-5.35,3.47-8.39,3.47c-2.61,0-5.21-0.85-7.36-2.55L87.78,59.58l2.53,2.53c0.2,0.2,0.36,0.43,0.48,0.67l5.66,5.66 c1.1,1.1,1.1,2.9,0,4c-1.1,1.1-2.9,1.1-4,0l-4.48-4.48l-42.24,42.24l0,0c-3.14,3.14-7.27,4.71-11.4,4.71 c-4.13,0-8.26-1.57-11.4-4.71l0,0l-3.12-3.12L4.83,122.05c-1.1,1.1-2.9,1.1-4,0c-1.1-1.1-1.1-2.9,0-4l14.98-14.98l-2.43-2.43v0 c-3.45-3.45-5.18-8-5.18-12.55c0-4.55,1.73-9.1,5.18-12.55v0l41.08-41.08l-4.02-4.02c-1.1-1.1-1.1-2.9,0-4c1.1-1.1,2.9-1.1,4,0 l5.2,5.2C59.88,31.75,60.11,31.91,60.31,32.11L60.31,32.11z M114.26,31.15L91.08,7.97c-1.07-1.07-2.48-1.6-3.89-1.6 c-1.41,0-2.82,0.53-3.89,1.6l0,0l0,0c-1.07,1.07-1.6,2.48-1.6,3.89c0,1.41,0.53,2.82,1.6,3.89h0l23.18,23.18 c1.07,1.07,2.48,1.6,3.89,1.6c1.41,0,2.82-0.53,3.89-1.6l0,0c1.07-1.07,1.6-2.48,1.6-3.89h0.01 C115.87,33.63,115.33,32.22,114.26,31.15L114.26,31.15z M98.29,40.06L82.55,24.32L68.12,38.75l15.74,15.74L98.29,40.06L98.29,40.06 z"/>
    </g>
</svg>
