<svg width="0" height="0">
    <symbol xmlns="http://www.w3.org/2000/svg" viewBox="0 0 352 512" id="thirst">
        <path fill="currentColor" d="M205.22 22.09c-7.94-28.78-49.44-30.12-58.44 0C100.01 179.85 0 222.72 0 333.91 0 432.35 78.72 512 176 512s176-79.65 176-178.09c0-111.75-99.79-153.34-146.78-311.82zM176 448c-61.75 0-112-50.25-112-112 0-8.84 7.16-16 16-16s16 7.16 16 16c0 44.11 35.89 80 80 80 8.84 0 16 7.16 16 16s-7.16 16-16 16z"/>
    </symbol>

    <symbol xmlns="http://www.w3.org/2000/svg" viewBox="0 0 416 512" id="hunger">
        <path fill="currentColor" d="M207.9 15.2c.8 4.7 16.1 94.5 16.1 128.8 0 52.3-27.8 89.6-68.9 104.6L168 486.7c.7 13.7-10.2 25.3-24 25.3H80c-13.7 0-24.7-11.5-24-25.3l12.9-238.1C27.7 233.6 0 196.2 0 144 0 109.6 15.3 19.9 16.1 15.2 19.3-5.1 61.4-5.4 64 16.3v141.2c1.3 3.4 15.1 3.2 16 0 1.4-25.3 7.9-139.2 8-141.8 3.3-20.8 44.7-20.8 47.9 0 .2 2.7 6.6 116.5 8 141.8.9 3.2 14.8 3.4 16 0V16.3c2.6-21.6 44.8-21.4 48-1.1zm119.2 285.7l-15 185.1c-1.2 14 9.9 26 23.9 26h56c13.3 0 24-10.7 24-24V24c0-13.2-10.7-24-24-24-82.5 0-221.4 178.5-64.9 300.9z"/>
    </symbol>

    <symbol xmlns="http://www.w3.org/2000/svg" viewBox="0 0 19 23" id="seatbelt">
        <path fill="currentColor" d="M4.39905 12.514C4.31405 6.69301 8.14802 6.74699 8.49902 6.32199C8.63704 6.13212 8.73285 5.91494 8.78003 5.685C8.23672 5.46105 7.77321 5.07905 7.44958 4.58853C7.12596 4.09801 6.95721 3.52159 6.96509 2.93399C6.94481 2.55584 7.00182 2.17752 7.13257 1.82211C7.26332 1.4667 7.46507 1.14165 7.72558 0.866791C7.9861 0.591935 8.29981 0.373044 8.6477 0.22345C8.9956 0.0738557 9.37033 -0.0032959 9.74902 -0.0032959C10.1277 -0.0032959 10.5024 0.0738557 10.8503 0.22345C11.1982 0.373044 11.5121 0.591935 11.7726 0.866791C12.0331 1.14165 12.2348 1.4667 12.3656 1.82211C12.4963 2.17752 12.5534 2.55584 12.5331 2.93399C12.5407 3.52179 12.3715 4.09832 12.0475 4.58884C11.7235 5.07935 11.2597 5.46125 10.7161 5.685C10.7625 5.91536 10.8587 6.13277 10.998 6.32199C11.0297 6.35626 11.0682 6.38353 11.1111 6.40201C8.73375 8.28008 6.49089 10.3224 4.39905 12.514V12.514ZM4.63513 15.574C5.20213 19.874 6.56608 21.898 7.28808 22.115C7.61387 22.2444 7.96804 22.2856 8.31482 22.2343C8.66159 22.183 8.98866 22.0411 9.26306 21.823C9.78606 20.985 6.78211 17.561 7.51611 16.941C8.9775 16.5456 10.5177 16.5456 11.9791 16.941C12.7131 17.561 9.71113 20.984 10.2341 21.823C10.5084 22.0413 10.8354 22.1833 11.1823 22.2346C11.5291 22.2859 11.8834 22.2446 12.2091 22.115C12.9091 21.901 14.2401 19.945 14.8251 15.815C11.4452 15.3694 8.02727 15.2886 4.63013 15.574H4.63513ZM6.36011 13.396C9.25762 13.2475 12.1627 13.3711 15.0371 13.765C15.0561 13.471 15.0741 13.165 15.0861 12.857C15.2151 9.67799 14.2201 8.15699 13.1771 7.36899C10.7603 9.20913 8.48154 11.2239 6.35913 13.397L6.36011 13.396ZM17.1731 4.63101C17.4006 4.48505 17.5637 4.25767 17.6291 3.99539C17.6946 3.73311 17.6573 3.45573 17.525 3.22C17.4649 3.10489 17.3818 3.00335 17.2809 2.92163C17.1799 2.83991 17.0632 2.77977 16.9381 2.7449C16.813 2.71004 16.6821 2.7012 16.5535 2.71893C16.4248 2.73667 16.3011 2.78058 16.1901 2.84799C14.4295 3.93319 12.7334 5.11952 11.1101 6.401C11.843 6.62086 12.5398 6.94698 13.1781 7.36899C14.4301 6.42299 15.7661 5.49599 17.1721 4.63199L17.1731 4.63101ZM17.2891 14.183C16.5481 14.012 15.7891 13.876 15.0381 13.765C14.9891 14.503 14.915 15.186 14.826 15.819C15.518 15.919 16.203 16.046 16.878 16.201C16.9467 16.2163 17.0167 16.224 17.087 16.224C17.3156 16.2189 17.5355 16.135 17.7093 15.9865C17.8832 15.838 18.0004 15.634 18.0411 15.409C18.1001 15.1469 18.0544 14.8722 17.9137 14.6433C17.773 14.4145 17.5486 14.2497 17.2881 14.184L17.2891 14.183ZM4.44214 13.514C4.43014 13.297 4.4171 13.081 4.4071 12.856C4.4071 12.737 4.40705 12.626 4.39905 12.513C4.03805 12.892 3.69912 13.259 3.37512 13.613C2.63312 14.423 2.01409 15.141 1.52209 15.732C0.728093 16.686 0.272053 17.298 0.206053 17.388C0.0466903 17.6066 -0.0240362 17.8774 0.00805537 18.146C0.0401469 18.4146 0.172653 18.6611 0.379027 18.836C0.547822 18.9757 0.760016 19.0524 0.979125 19.053C1.13071 19.0523 1.27997 19.0156 1.41467 18.9461C1.54938 18.8766 1.6656 18.7761 1.75403 18.653C1.77703 18.621 2.68109 17.407 4.29309 15.605L4.63513 15.577C4.62313 15.477 4.61002 15.371 4.59802 15.267C4.53002 14.715 4.47704 14.135 4.44104 13.515L4.44214 13.514Z"/>
    </symbol>

    <symbol xmlns="http://www.w3.org/2000/svg" viewBox="0 0 25 20" fill="currentColor" id="low-beam">
        <path d="M14.6479 0C11.831 0 9.78873 4.11972 9.78873 9.82394C9.78873 16.0563 11.5493 19.6479 14.6479 19.6479C20.0704 19.6479 24.4718 15.2465 24.4718 9.82394C24.4718 4.40141 20.0704 0 14.6479 0ZM22.7113 9.82394C22.7113 14.2606 19.0845 17.8873 14.6479 17.8873C12.7465 17.8873 11.5493 14.7887 11.5493 9.82394C11.5493 5 13.169 1.76056 14.6479 1.76056C19.0845 1.76056 22.7113 5.38732 22.7113 9.82394Z"/>
        <path d="M0.880277 5.38729C0.950699 5.38729 1.02112 5.38729 1.09154 5.35208L8.20422 3.48588C8.41549 3.41546 8.62676 3.27461 8.73239 3.06335C8.83802 2.85208 8.87323 2.64081 8.83802 2.39433C8.7676 2.18306 8.62676 1.9718 8.41549 1.86616C8.20422 1.72532 7.99295 1.72532 7.74647 1.76053L0.669009 3.62673C0.211262 3.76757 -0.0704279 4.22532 0.035206 4.71828C0.14084 5.1056 0.492952 5.38729 0.880277 5.38729Z"/>
        <path d="M8.41549 6.72528C8.20422 6.61965 7.99295 6.58444 7.74648 6.61965L0.66901 8.52106C0.457743 8.59148 0.246475 8.73233 0.140841 8.94359C0.0352074 9.15486 -3.86871e-06 9.36613 0.0352074 9.61261C0.140841 9.99993 0.492954 10.2816 0.880278 10.2816C0.9507 10.2816 1.02112 10.2816 1.09155 10.2464L8.20422 8.38021C8.41549 8.30979 8.62676 8.16895 8.73239 7.95768C8.83802 7.74641 8.87324 7.49993 8.83802 7.28866C8.7676 7.04219 8.62676 6.86613 8.41549 6.72528Z"/>
        <path d="M7.74647 11.5141L0.669009 13.4155C0.211262 13.5564 -0.0704279 14.0141 0.035206 14.5071C0.14084 14.8592 0.492952 15.1409 0.880277 15.1409C0.950699 15.1409 1.02112 15.1409 1.09154 15.1057L8.20422 13.2395C8.41549 13.169 8.62676 13.0282 8.73239 12.8169C8.83802 12.6057 8.87323 12.3944 8.83802 12.1479C8.69718 11.6902 8.23943 11.4085 7.74647 11.5141Z"/>
        <path d="M8.41549 16.5141C8.20422 16.4085 7.95774 16.3733 7.74647 16.4085L0.669009 18.2747C0.211262 18.4155 -0.0704279 18.8733 0.035206 19.3662C0.14084 19.7535 0.492952 20.0352 0.880277 20.0352C0.950699 20.0352 1.02112 20.0352 1.09154 20L8.20422 18.1338C8.41549 18.0634 8.62676 17.9226 8.73239 17.7113C8.83802 17.5 8.87323 17.2888 8.83802 17.0423C8.80281 16.7958 8.62676 16.6197 8.41549 16.5141Z"/>
    </symbol>

    <symbol xmlns="http://www.w3.org/2000/svg" viewBox="0 0 25 20" fill="currentColor" id="high-beam">
        <path d="M14.7312 0C11.8638 0 9.78494 4.19355 9.78494 10C9.78494 16.3441 11.5771 20 14.7312 20C20.2509 20 24.7312 15.5197 24.7312 10C24.767 4.48029 20.2509 0 14.7312 0ZM14.7312 18.2079C12.7957 18.2079 11.5771 15.0538 11.5771 10C11.6129 5.08961 13.2258 1.79211 14.7312 1.79211C19.2473 1.79211 22.9391 5.48387 22.9391 10C22.9391 14.5161 19.2832 18.2079 14.7312 18.2079Z"/>
        <path d="M8.1362 1.14697H0.896057C0.394265 1.14697 0 1.57708 0 2.04303C0 2.50898 0.394265 2.93909 0.896057 2.93909H8.1362C8.63799 2.93909 9.03226 2.54482 9.03226 2.04303C9.03226 1.54124 8.60215 1.14697 8.1362 1.14697Z"/>
        <path d="M8.1362 6.45166H0.896057C0.394265 6.45166 0 6.84593 0 7.34772C0 7.84951 0.394265 8.24378 0.896057 8.24378H8.1362C8.63799 8.24378 9.03226 7.84951 9.03226 7.34772C9.03226 6.84593 8.60215 6.45166 8.1362 6.45166Z"/>
        <path d="M8.1362 11.7563H0.896057C0.394265 11.7563 0 12.1506 0 12.6524C0 13.1542 0.394265 13.5485 0.896057 13.5485H8.1362C8.63799 13.5485 9.03226 13.1542 9.03226 12.6524C9.03226 12.1506 8.60215 11.7563 8.1362 11.7563Z"/>
        <path d="M8.1362 17.0608H0.896057C0.394265 17.0608 0 17.4551 0 17.9568C0 18.4586 0.394265 18.8529 0.896057 18.8529H8.1362C8.63799 18.8529 9.03226 18.4586 9.03226 17.9568C9.03226 17.4551 8.60215 17.0608 8.1362 17.0608Z"/>
    </symbol>
</svg>