<?xml version="1.0" encoding="UTF-8"?>
<svg width="40" height="40" version="1.1" viewBox="0 0 40 40" xmlns="http://www.w3.org/2000/svg">
 <path d="m20.114 1.2809e-7a3.3424 3.3424 0 0 0-3.3411 3.3424 3.3424 3.3424 0 0 0 3.3424 3.3424 3.3424 3.3424 0 0 0 3.3424-3.3424 3.3424 3.3424 0 0 0-3.3424-3.3424 3.3424 3.3424 0 0 0-0.0013 0zm-0.60917 7.3447c-2.3818 6.55e-4 -3.3835 0.18146-4.6436 0.80421-2.2098 1.0921-3.3824 2.786-3.8948 5.6265-0.23412 1.2977-0.17328 3.7404 0.15885 6.3837 0.2344 1.3995 0.34792 2.0576 1.5635 2.0601 0.7043-0.0085 1.1763-0.24187 1.6123-0.79997 0.41492-0.544 0.44032-0.86064 0.2058-2.562-0.25441-1.8457-0.28646-3.899-0.07421-4.7545 0.15886-0.64028 0.4426-1.2602 0.75909-1.6585l0.23306-0.2933 8.02e-4 13.165 8.01e-4 13.165 0.18508 0.39752c0.43393 0.9319 1.3997 1.3427 2.3573 1.0027 0.46467-0.16499 0.89169-0.55432 1.101-1.0037l0.18462-0.39649 8.02e-4 -6.9413c8.03e-4 -7.3018-7.46e-4 -7.2689 0.34175-7.553 0.09024-0.07484 0.24428-0.10382 0.40314-0.10388 0.15886 5.9e-5 0.31289 0.02903 0.40314 0.10388 0.3425 0.28403 0.34095 0.25111 0.34175 7.553l8.02e-4 6.9413 0.18462 0.39649c0.20926 0.4494 0.63628 0.83873 1.101 1.0037 0.95763 0.34002 1.9234-0.07079 2.3573-1.0027l0.18508-0.39752 8.02e-4 -13.165 8.02e-4 -13.165 0.23306 0.2933c0.31648 0.39824 0.60023 1.0182 0.75909 1.6585 0.21225 0.85545 0.1802 2.9088-0.07421 4.7545-0.23451 1.7013-0.20912 2.018 0.20581 2.562 0.436 0.5581 0.90802 0.79145 1.6123 0.79997 1.2156-0.0025 1.3291-0.66062 1.5635-2.0601 0.33213-2.6434 0.39297-5.0861 0.15885-6.3837-0.51247-2.8405-1.6851-4.5344-3.8948-5.6265-1.3441-0.66427-2.3943-0.82572-5.1388-0.80203-0.17154-0.00148-0.33643-0.00222-0.49522-0.00218z" fill="#fff"/>
</svg>
