<?xml version="1.0" encoding="UTF-8"?>
<svg width="40" height="40" version="1.1" viewBox="32.073 45.142 40 40" xmlns="http://www.w3.org/2000/svg">
<path d="m70.308 72.336-16.853-10.011v-1.704c0-1.9333-2.0949-2.7724-2.0949-2.7724-1.3559-0.66561-1.2347-2.0999-1.2347-2.0999 0-1.6834 1.4984-2.2236 2.1657-2.2236 1.1213 0 2.2212 0.6261 2.3372 2.0578 0.18259 2.245 2.7093 1.6748 2.7093-0.12883 0-1.704-1.5445-4.6936-5.0661-4.6936-3.8083 0-4.9014 3.7472-4.9014 4.9315 0 0.89407 0.13995 1.7194 0.68777 2.6607 0.93181 1.6009 2.7946 1.8525 2.7946 2.9124v1.0598l-17.024 10.049c-1.6793 0.99799-1.9831 3.1219-1.6187 4.4111 0.35329 1.2496 1.5991 2.7389 3.8416 2.7389h0.0051 31.822c2.5096 0 3.6548-1.448 4.008-2.6977 0.36437-1.2891 0.36437-3.2843-1.5786-4.4901zm-2.3893 4.3776h-31.817c-1.0359 0.04037-1.6759-1.4197-0.65191-2.0638l16.599-9.7549 16.51 9.7119c1.024 0.73002 0.46932 2.1042-0.64002 2.1068z" fill="#fff"/>
</svg>
