<?xml version="1.0" encoding="UTF-8"?>
<svg width="17.839" height="59.999" version="1.1" viewBox="0 0 4.7199 15.875" xmlns="http://www.w3.org/2000/svg">
  <path d="m0.55669 15.804c-0.0927-0.0373-0.16844-0.0942-0.16822-0.12641 2.3e-4 -0.0322 0.16885-0.22115 0.37473-0.4198 0.41638-0.40177 0.44542-0.52952 0.28609-1.2586-0.0492-0.22509-0.092-1.0668-0.0968-1.9026-4e-3 -0.82438-0.0505-1.7518-0.10189-2.061-0.15138-0.91168-0.12788-2.1137 0.0549-2.8058 0.15929-0.60332 0.19327-1.2589 0.0935-1.8033-0.0482-0.26253-0.0707-0.18301-0.18207 0.63992-0.0699 0.51682-0.20153 1.1873-0.2925 1.4899-0.15766 0.52441-0.15946 0.56054-0.0385 0.77138 0.13784 0.24017 0.18078 1.0006 0.052 0.92101-0.0413-0.0255-0.0749-0.13063-0.0749-0.23368 0-0.10581-0.0325-0.16721-0.075-0.14103-0.11136 0.0688-0.0907 0.31076 0.0375 0.43894 0.17001 0.17002 0.14612 0.29633-0.0375 0.19808-0.36736-0.19661-0.40415-0.37178-0.38347-1.8257 0.0116-0.81355 0.0623-1.5646 0.12647-1.8702 0.0616-0.29358 0.10716-0.93095 0.10723-1.4989 1.6e-4 -1.3634 0.0409-1.439 0.93668-1.7376 0.61791-0.20597 0.67652-0.24237 0.6985-0.43388 0.0132-0.11497-0.0498-0.36154-0.14004-0.54792-0.24397-0.50395-0.18258-1.1005 0.14317-1.3916 0.26452-0.23634 0.51191-0.26676 0.83034-0.1021 0.38617 0.1997 0.50294 0.96433 0.22923 1.5012-0.15532 0.30467-0.18749 0.54116-0.0925 0.68013 0.0303 0.04435 0.33885 0.17921 0.6857 0.29977 0.91463 0.31792 0.93134 0.34915 0.99226 1.8545 0.027 0.66695 0.0909 1.9412 0.14202 2.8318 0.0511 0.89051 0.0711 1.7061 0.0445 1.8124-0.0266 0.10632-0.15155 0.26668-0.27748 0.35636-0.25915 0.18452-0.38322 0.14324-0.1949-0.0649 0.0684-0.0755 0.121-0.23604 0.1168-0.35644-8e-3 -0.21894-8e-3 -0.21894-0.0858 0.0246-0.043 0.13396-0.10698 0.24357-0.14224 0.24357-0.12169 0-0.0636-0.6064 0.0861-0.90001 0.15023-0.29448 0.15023-0.29448-0.0275-0.91509-0.0977-0.34132-0.2203-0.95785-0.27244-1.37-0.12172-0.96246-0.19167-1.0842-0.25291-0.44018-0.0525 0.55159 0.0123 1.0802 0.21962 1.7934 0.10646 0.36621 0.12147 0.62454 0.0847 1.457-0.0246 0.55654-0.0949 1.2817-0.15619 1.6115-0.11252 0.60527-0.11494 0.90436-0.0139 1.7237 0.051 0.41375 0.0134 0.79515-0.22347 2.2632-0.0492 0.30461-0.0385 0.3266 0.33293 0.68837 0.41963 0.40874 0.47308 0.56685 0.21504 0.636-0.30059 0.0806-0.40225 0.0511-0.62452-0.18103-0.12023-0.12556-0.298-0.26095-0.39507-0.3009-0.13356-0.055-0.16647-0.11336-0.13534-0.24014 0.12065-0.49142 0.12609-0.95662 0.0171-1.4652-0.0646-0.30154-0.11748-0.81312-0.11748-1.1368 0-0.32374-0.0536-0.79752-0.11892-1.0529-0.0654-0.25532-0.1019-0.52939-0.0811-0.60904 0.0405-0.15498-0.13365-1.5259-0.24131-1.8991-0.0442-0.15361-0.0784-0.18923-0.10763-0.11242-0.0881 0.23137-0.27547 1.6458-0.27547 2.0792 0 0.24753-0.052 0.59739-0.11552 0.77749-0.0789 0.22344-0.10043 0.4484-0.068 0.70827 0.0298 0.23847 6.01e-4 0.63083-0.0781 1.0497-0.0871 0.46381-0.11148 0.84574-0.0794 1.2457 0.0418 0.52111 0.0322 0.58435-0.0994 0.6548-0.0801 0.0429-0.24732 0.17957-0.37151 0.30376-0.23303 0.23305-0.37789 0.26524-0.66826 0.14853z" fill="#fff"/>
</svg>
