<?xml version="1.0" encoding="UTF-8"?>
<svg width="60" height="50.848" version="1.1" viewBox="0 0 15.875 13.454" xmlns="http://www.w3.org/2000/svg">
 <path d="m-1.6078e-4 12.565c0.030161 0.0074 0.060366 0.01478 0.090616 0.02211 0.26202 0.0643 0.52165 0.11885 0.76691 0.17017 1.7271 0.24458 3.3363 0.54202 4.8777 0.63651 0.76385 0.04051 1.4217 0.05736 2.1084 0.0596h0.022111c0.91821-9e-3 1.7122-0.03525 2.5284-0.08835 1.6281-0.15295 3.3778-0.39743 4.8424-0.69398 0.22433-0.0499 0.43188-0.10105 0.63872-0.1525-0.59984-0.55182-1.4125-0.96064-2.8643-1.4653-1.4834-0.51561-2.8032-1.0922-2.9328-1.2819-0.40625-0.59434-0.26866-1.6077 0.39561-2.9107 1.1706-2.2961 0.67027-5.5641-0.98129-6.4182-1.3618-0.70421-2.4204-0.57538-3.5517 0.43539-1.3932 1.245-1.6556 3.7966-0.6122 5.9518 0.38594 0.7971 0.6554 1.851 0.59894 2.3427-0.094004 0.81904-0.34321 0.97561-2.9859 1.8565-1.5159 0.5053-2.3551 0.9291-2.9417 1.536z" fill="#fff"/>
</svg>
