<?xml version="1.0" encoding="UTF-8"?>
<svg width="40" height="40" version="1.1" viewBox="0 0 40 40" xmlns="http://www.w3.org/2000/svg">
  <path d="m20.346 39.492-0.48158-0.51086-0.73013 0.44274c-0.86853 0.52665-1.1947 0.59911-1.5006 0.33341-0.12789-0.11107-0.22995-0.29632-0.25703-0.46652-0.06203-0.38966 0.16248-0.60765 1.3887-1.3485 1.3263-0.80133 1.3658-0.80076 2.1552 0.03101 0.97591 1.0283 1.0908 1.2481 0.86959 1.6636-0.14134 0.26537-0.31223 0.36086-0.65068 0.36355-0.284 0.0025-0.35478-0.04309-0.79338-0.50837zm3.9965-0.44115c-0.8087-0.45376-2.9043-2.6738-3.6256-3.8407-0.09741-0.1576-0.20403-0.28655-0.23695-0.28655-0.03291 0-0.35532 0.22222-0.71645 0.49382-0.81001 0.60919-2.1517 1.4681-3.0571 1.957-0.962 0.51947-2.3877 1.1438-2.612 1.1438-0.48428 0-0.81174-0.51496-0.6197-0.97457 0.09611-0.23002 0.27139-0.33869 1.6197-1.0041 1.6481-0.8134 3.1443-1.7528 4.4778-2.8117 0.92642-0.73555 1.1165-0.80188 1.4795-0.51633 0.11421 0.08983 0.39143 0.45027 0.61607 0.80096 0.67623 1.0557 1.5349 2.0702 2.5901 3.0601 0.5498 0.51574 1.0322 1.0219 1.0719 1.1248 0.21159 0.54752-0.47494 1.141-0.98732 0.85356zm2.5392-1.8279c-2.3589-1.6129-4.3376-4.1525-5.3125-6.8187l-0.18099-0.49493-1.0625 1.0508c-1.9445 1.923-3.6237 3.1149-5.9661 4.2344-1.0012 0.47852-2.9104 1.2137-3.1519 1.2137-0.40938 0-0.79315-0.4857-0.69446-0.87891 0.0842-0.33549 0.29824-0.48808 1.0621-0.75708 3.5678-1.2565 6.6192-3.3557 8.953-6.159 0.75604-0.90814 0.98606-1.0766 1.3582-0.99491 0.30537 0.06707 0.4584 0.27262 0.59 0.79248 0.3925 1.5505 1.1704 3.2581 2.041 4.4803 0.65573 0.92056 1.9551 2.2434 2.8327 2.8838 0.36485 0.26626 0.70646 0.56162 0.75912 0.65636 0.24319 0.43751-0.02051 0.96151-0.52426 1.0416-0.22797 0.03622-0.34593-0.0058-0.70328-0.25002zm2.2335-2.11c-2.1822-1.3159-4.0196-3.5949-4.817-5.975-0.45531-1.359-0.56998-2.085-0.57347-3.6306-0.0033-1.5807 0.09636-2.2496 0.54279-3.6336 0.60483-1.875 0.88415-3.477 0.94689-5.4309 0.05136-1.5983-0.04449-2.1637-0.53543-3.1593-0.60479-1.2265-1.8934-2.2914-3.2585-2.6929-2.2335-0.65686-4.8373 0.4222-5.9796 2.478-0.4551 0.81907-0.58312 1.3326-0.70938 2.8454-0.15358 1.8401-0.3908 2.8227-0.9578 3.9671-0.98187 1.9819-2.6908 3.6618-4.6423 4.5634-1.1054 0.5107-2.5492 0.8672-3.513 0.86744-0.36985 8.2e-5 -0.47098-0.03217-0.64468-0.2059-0.28585-0.28586-0.27999-0.66974 0.014721-0.96445 0.18418-0.18418 0.31035-0.22931 0.76189-0.27257 1.5694-0.15032 3.3072-0.85162 4.4483-1.7952 1.9738-1.6321 2.9202-3.5718 3.0904-6.3343 0.13335-2.1639 0.69959-3.5353 1.9942-4.8299 0.8148-0.8148 1.8614-1.4266 2.9641-1.7328 0.72947-0.20253 2.2944-0.24463 3.0924-0.083197 2.5206 0.50989 4.5101 2.4251 5.199 5.0049 0.11962 0.44792 0.14458 0.80886 0.13778 1.9926-0.01199 2.0921-0.34208 4.1184-1.0078 6.187-0.36723 1.1411-0.50573 2.0147-0.50573 3.1901 0 2.0715 0.56649 3.8972 1.7458 5.6263 0.58134 0.85238 1.7511 1.9866 2.6815 2.6001 0.43431 0.28638 0.81143 0.57742 0.83804 0.64676 0.1121 0.29213 0.04532 0.59723-0.18003 0.82259-0.30423 0.30423-0.56319 0.29256-1.133-0.05103zm-20.332-1.2818c-0.21738-0.08784-0.49918-0.45179-0.49918-0.64472 0-0.23705 0.24262-0.59201 0.46421-0.67914 0.11-0.04325 0.51914-0.16663 0.90921-0.27417 1.3127-0.36192 2.8442-1.0106 4.0067-1.6972 5.1682-3.0521 8.5061-8.6852 8.5594-14.445 0.0083-0.87159-0.01092-1.0209-0.17613-1.3864-0.45366-1.0035-1.5962-1.5075-2.7208-1.2002-0.49589 0.1355-1.0664 0.62833-1.3146 1.1356-0.17599 0.35971-0.22378 0.59618-0.28124 1.3915-0.11843 1.6393-0.26277 2.4348-0.6701 3.6931-0.96624 2.9848-3.3548 5.7521-6.2332 7.2219-1.2101 0.61785-2.6191 1.0608-4.0094 1.2603-0.7887 0.11321-1.0747 0.0282-1.2405-0.36882-0.091897-0.21996-0.092286-0.29918-0.00248-0.514 0.058387-0.13967 0.1564-0.29563 0.21782-0.34655 0.061447-0.05094 0.5346-0.16358 1.0515-0.25034 0.51691-0.08675 1.2369-0.25137 1.6001-0.3658 3.3203-1.0464 6.0141-3.653 7.1818-6.9493 0.36018-1.0168 0.53938-1.9503 0.63005-3.282 0.08753-1.2858 0.19823-1.7325 0.59242-2.3904 1.4192-2.3686 4.8557-2.3693 6.3208-0.0017 0.42507 0.68707 0.52334 1.1206 0.51719 2.2815-0.01141 2.154-0.45595 4.3232-1.3487 6.5812-1.4627 3.6994-4.3173 7.0373-7.7632 9.0777-1.4994 0.88782-3.0821 1.5627-4.6571 1.9859-0.49719 0.13359-0.91865 0.24065-0.93657 0.23793-0.017946-0.0025-0.10687-0.03498-0.19763-0.07162zm22.194-1.0993c-1.0733-0.5646-2.1382-1.5427-2.8886-2.6532-1.0784-1.5959-1.554-3.4393-1.3679-5.3013 0.08868-0.88706 0.11978-1.0254 0.58234-2.59 0.59194-2.0022 0.90751-4.1523 0.91466-6.2319 0.0058-1.664-0.20559-2.6634-0.83453-3.947-0.99503-2.0308-2.9054-3.637-5.0729-4.2649-1.8866-0.5466-4.0092-0.38475-5.7689 0.43988-2.2496 1.0542-3.9026 3.0402-4.5098 5.4183-0.09134 0.35776-0.21324 1.2332-0.2709 1.9455-0.12808 1.5824-0.24799 2.0786-0.74512 3.0836-0.94785 1.9161-2.742 3.2517-4.8757 3.6297-0.25502 0.04515-0.65332 0.08212-0.88512 0.08212-0.36162 0-0.45387-0.03242-0.64987-0.22841-0.24122-0.24123-0.28682-0.49563-0.14471-0.80751 0.12873-0.28253 0.32053-0.3618 1.0849-0.44839 1.3206-0.14961 2.2396-0.58965 3.1752-1.5205 1.1003-1.0947 1.4709-1.9946 1.5898-3.8604 0.04011-0.62945 0.13117-1.4258 0.20235-1.7696 1.1182-5.4017 6.5444-8.8066 11.876-7.4522 3.1315 0.79553 5.7094 3.16 6.7646 6.2046 0.42424 1.2241 0.50299 1.7968 0.4993 3.631-0.0041 2.2559-0.29327 4.28-0.89729 6.2905-0.59651 1.9854-0.57694 1.8799-0.57234 3.0866 0.0033 0.90836 0.03788 1.257 0.17376 1.7582 0.47109 1.7379 1.6477 3.2564 3.2333 4.1726 0.59658 0.34473 0.81375 0.69562 0.67567 1.0917-0.08901 0.25534-0.40824 0.4792-0.68336 0.4792-0.08374 0-0.35594-0.10716-0.60492-0.23813zm-23.827-1.633c-0.28122-0.1151-0.46101-0.38618-0.45261-0.68242 0.01315-0.46281 0.24557-0.61836 1.259-0.84252 4.4488-0.98398 7.9385-3.7118 9.9019-7.7401 0.85738-1.759 1.2369-3.3118 1.4093-5.7664 0.06062-0.86328 0.22223-1.1058 0.73688-1.1058 0.26312 0 0.36668 0.04367 0.51622 0.21748 0.16705 0.19421 0.18706 0.29194 0.18706 0.91372 0 0.78477-0.17033 2.1327-0.39477 3.124-1.3422 5.9287-6.1195 10.573-12.136 11.799-0.85832 0.17486-0.81179 0.17109-1.0268 0.08309zm25.201-1.0312c-0.58633-0.33291-1.2027-0.86784-1.5526-1.3476-0.86684-1.1883-1.1535-2.1252-1.082-3.5358 0.03598-0.70889 0.10084-1.0362 0.3929-1.9822 1.0928-3.5396 1.4184-7.5488 0.82173-10.119-0.69497-2.9943-2.7051-5.6762-5.4178-7.2284-2.5123-1.4375-5.7992-1.8074-8.6694-0.97564-3.3061 0.95808-6.1269 3.5712-7.3533 6.812-0.33988 0.89813-0.57881 2.0418-0.66626 3.1893-0.14558 1.9101-0.38353 2.5912-1.1885 3.402-0.48828 0.49182-1.3031 0.90532-2.0075 1.0188-0.60867 0.09802-0.89085 0.04193-1.095-0.21763-0.35102-0.44624-0.074679-1.0612 0.51802-1.1529 0.69074-0.10684 1.1145-0.2846 1.4959-0.62759 0.57352-0.51565 0.70889-0.89835 0.79444-2.246 0.21525-3.3906 1.4523-6.1385 3.809-8.461 4.9333-4.8617 12.89-4.8247 17.798 0.082701 1.783 1.783 2.9369 3.9102 3.4952 6.4434 0.16491 0.74822 0.18054 1.0063 0.17758 2.9303-0.0025 1.5637-0.03846 2.3627-0.13926 3.0866-0.21047 1.5115-0.55695 3.1275-0.95145 4.4375-0.43041 1.4293-0.47805 1.768-0.35301 2.5093 0.18775 1.1131 0.81508 2.0132 1.8862 2.7066 0.61242 0.39642 0.75786 0.66945 0.58149 1.0916-0.20719 0.49589-0.63716 0.55699-1.2942 0.18391zm0.57506-4.3155c-0.3041-0.26158-0.28226-0.56249 0.14536-2.003 1.2169-4.0994 1.4853-8.6071 0.69547-11.682-1.1727-4.5659-4.7285-8.3802-9.2085-9.8778-5.1678-1.7275-10.758-0.42359-14.586 3.4019-2.552 2.5508-3.9154 5.6383-4.1816 9.4699-0.055575 0.79968-0.080386 0.90312-0.25953 1.0823-0.4072 0.40719-1.0923 0.16992-1.2023-0.41638-0.059379-0.31663 0.086952-2.0568 0.23975-2.8506 0.26582-1.3811 0.78958-2.974 1.3396-4.0741 2.3769-4.7541 6.7887-7.9524 11.986-8.6891 1.0578-0.14995 3.1619-0.14995 4.2197 0 6.7193 0.95251 12.045 6.0367 13.317 12.713 0.57323 3.0086 0.14353 7.7629-1.0576 11.702-0.32124 1.0534-0.3765 1.1684-0.62329 1.296-0.31545 0.16313-0.57812 0.14035-0.82438-0.07145z" fill="#fff"/>
</svg>
