<?xml version="1.0" encoding="UTF-8"?>
<svg width="60" height="45.436" version="1.1" viewBox="0 0 15.875 12.022" xmlns="http://www.w3.org/2000/svg">
 <path d="m10.283 0c0.08616 1.0479 0.13627 2.1428 0.302 2.9165 0.44541 2.0785 0.42337 3.981-0.06969 5.9893-0.12721 0.51811 0.0074 0.75725 0.55331 0.98202 0.39669 0.16326 1.1221 0.71601 1.6135 1.2291 0.90835 0.94865 1.3249 1.0686 2.5533 0.73916 1.0545-0.28259 0.83636-0.93143-0.87854-2.6018-1.5179-1.4784-1.5632-1.5681-1.3622-2.813 0.43896-2.7205 0.66659-4.3394 0.81307-5.6598-1.2057-0.41889-2.3785-0.59857-3.5247-0.78139zm-4.4708 0.16473c-0.021133 0.0035-0.04225 7e-3 -0.063356 0.01056-1.1071 0.19879-2.2487 0.61882-3.2122 0.97357 0.065268 1.0588 0.081781 2.8284 0.16473 3.2079 0.65113 2.9795 0.5316 3.5005-1.17 5.1424-0.84137 0.81182-1.5301 1.5832-1.5311 1.7148-8.989e-4 0.13164 0.30752 0.36497 0.68636 0.51741 1.1866 0.47695 1.7784 0.3463 2.7307-0.60611 0.50752-0.50752 1.1911-1.0665 1.5184-1.2418 0.53781-0.2879 0.5763-0.54613 0.40548-2.6757-0.13111-1.6345-0.030721-3.1962 0.32523-5.0917 0.14633-0.7788 0.086852-1.2666 0.14572-1.9514z" fill="#fff"/>
</svg>
