<?xml version="1.0" encoding="UTF-8"?>
<svg width="40" height="40" version="1.1" viewBox="0 0 10.583 10.583" xmlns="http://www.w3.org/2000/svg">
 <path d="m1.823-4.8213e-5c-0.1154 0.15193-0.17154 0.37414-0.20774 0.56947-0.04118 0.25999-0.012702 0.81877 0.060978 1.2051 0.10322 0.54125 0.15535 0.79736 0.21032 1.0335 0.22654 0.98251 0.49928 2.1829 0.66508 3.2995-0.12389 0.61114-0.46148 1.3634-0.59635 2.1203l-0.078548-0.064079c-0.21959-0.17884-0.40152-0.25939-0.61495-0.27337-0.34812-0.0203-0.65061 0.2119-0.87023 0.51986-0.13948 0.21346-0.21226 0.41845-0.2434 0.68626-0.04372 0.3761 0.078771 0.83032 0.30437 1.1302 0.1646 0.21878 0.43176 0.3383 0.75189 0.33641 0.41128-9e-3 0.83922-0.34397 0.99064-0.7829 0.06623-0.18296 0.10395-0.42177 0.13126-0.83044 0.04281-0.64054 0.054337-0.76249 0.089917-0.94723 0.09587-0.48011 0.32144-0.99783 0.64079-1.4185 0.06331-0.0797 0.058301-0.082088 0.15141 0.062012 0.2631 0.40725 0.41789 0.76013 0.51831 1.1813 0.07961 0.33389 0.10189 0.48559 0.13436 0.92242 0.0283 0.38082 0.050616 0.60375 0.067696 0.67179 0.1053 0.51276 0.33122 0.91272 0.88522 1.1524 0.11076 0.0206 0.33625 0.0058 0.44648-0.02946 0.25849-0.0822 0.5431-0.36534 0.6811-0.67748 0.13465-0.30959 0.12774-0.67679 0.064079-1.0139-0.10638-0.385-0.34642-0.76176-0.74156-0.90227-0.17809-0.061-0.37421-0.056987-0.57568-5.167e-4 -0.14804 0.0518-0.25885 0.11879-0.35605 0.21497-0.07907 0.0782-0.094101 0.087544-0.094051 0.056844-0.11825-0.73538-0.41753-1.3846-0.57671-2.0851-0.56929-2.0348-1.1566-3.8841-1.8386-6.1371zm2.5533 0.0056844c-0.01071-3.2002e-4 -0.019378 0.0090891-0.024288 0.030489-0.32526 1.2185-0.77096 2.6195-1.1808 3.9858 0.05505 0.19211 0.1022 0.35169 0.15916 0.55759 0.08399 0.30724 0.17573 0.61222 0.262 0.91881h5.168e-4c0.08568 0.299 0.11369 0.37101 0.11369 0.28784 0-0.0186 0.016827-0.1201 0.037207-0.22531s0.040135-0.20812 0.043925-0.22841c0.03257-0.17437 0.17927-0.85971 0.29559-1.3803 0.28525-1.2766 0.39674-1.859 0.47542-2.4877 0.03639-0.29143 0.036105-0.89199-5.168e-4 -1.062-0.04526-0.21-0.1355-0.39546-0.1819-0.39688zm3.6757 0.76843v5.1679e-4c-0.0166 9.9999e-4 -0.033596 0.003751-0.050126 0.007751l-2.1213 0.56896c-0.58783 0.1575-0.93679 0.76144-0.77928 1.3493l1.6759 6.2549c0.1575 0.58784 0.76196 0.93626 1.3498 0.77876l2.1286-0.56999c0.13959-0.0374 0.22066-0.18422 0.17622-0.32349-0.04161-0.13044-0.18246-0.20132-0.31471-0.16588l-1.8764 0.50281-0.13281-0.49558 1.8831-0.50488c0.13565-0.0363 0.21618-0.17545 0.17983-0.31109-0.03635-0.13565-0.17596-0.21618-0.31161-0.17983l-1.8831 0.50436-0.13229-0.49506 1.8831-0.50436c0.13565-0.0363 0.21619-0.17597 0.17983-0.31161-0.03634-0.13565-0.17596-0.21618-0.31161-0.17983l-1.8831 0.50436-0.13281-0.49506 1.8831-0.50488c0.13565-0.0363 0.21618-0.17545 0.17983-0.31109-0.03635-0.13565-0.17596-0.21618-0.31161-0.17983l-1.8831 0.50436-0.13229-0.49506 1.8831-0.50488c0.13564-0.0363 0.21567-0.17545 0.17932-0.31109-0.03634-0.13565-0.17544-0.21618-0.31109-0.17983l-1.8831 0.50436-0.13281-0.49506 1.8831-0.50488c0.13564-0.0363 0.21618-0.17545 0.17983-0.31109-0.03635-0.13565-0.17596-0.21617-0.31161-0.17983l-1.8831 0.50436-0.13229-0.49558 1.8831-0.50436c0.13565-0.0363 0.21567-0.17596 0.17932-0.31161-0.03634-0.13564-0.17544-0.21567-0.31109-0.17932l-1.8831 0.50436-0.13281-0.49558 1.8831-0.50436c0.13564-0.0363 0.21618-0.17596 0.17983-0.31161s-0.17596-0.21618-0.31161-0.17983l-1.8831 0.50488-0.13281-0.49558 1.8831-0.50436c0.1396-0.0374 0.22117-0.18423 0.17673-0.32349-0.03641-0.11414-0.14893-0.18249-0.2651-0.17415zm-4.9444 4.6374a0.27579 0.27579 0 0 1 5.167e-4 0 0.27579 0.27579 0 0 1 0.00155 0 0.27579 0.27579 0 0 1 0.27595 0.27595 0.27579 0.27579 0 0 1-0.27595 0.27595 0.27579 0.27579 0 0 1-0.27595-0.27595 0.27579 0.27579 0 0 1 0.27389-0.27595zm-1.8769 2.8742c0.31083 5.4e-4 0.56504 0.25278 0.66146 0.65681 0.02675 0.11224 0.030288 0.1624 0.024288 0.32453-0.00808 0.21647-0.045633 0.36273-0.14004 0.54364-0.066623 0.12764-0.22117 0.2842-0.33796 0.3421-0.16296 0.07978-0.35724 0.05983-0.54157-0.02687-0.24369-0.14281-0.41409-0.54701-0.38964-0.92449 0.033333-0.51468 0.35072-0.91634 0.72347-0.91571zm3.7161 0.00103c0.070631-0.0019 0.14233 0.00667 0.19585 0.026872 0.29384 0.11084 0.49559 0.42097 0.54467 0.83716 0.049047 0.41575-0.14441 0.85955-0.43667 1.002-0.074171 0.0362-0.10868 0.04351-0.22169 0.04651-0.20167 0.0055-0.30878-0.0411-0.46612-0.20154-0.099155-0.10113-0.20821-0.3097-0.25063-0.47904-0.03561-0.14214-0.039811-0.44145-0.0077515-0.57568 0.06813-0.2853 0.24308-0.52517 0.45062-0.61857 0.051119-0.023 0.12109-0.035823 0.19172-0.037724z" fill="#fff"/>
</svg>
