<?xml version="1.0" encoding="UTF-8"?>
<svg width="40" height="40" version="1.1" viewBox="0 0 40 40" xmlns="http://www.w3.org/2000/svg">
  <path d="m19.993 3.2612e-4c-3.7806 0-7.3358 1.4709-10.01 4.145-2.6229 2.6331-4.0882 6.1111-4.1394 9.8149-0.051228 3.7909 1.4244 7.4591 4.0883 10.154 2.0696 2.0901 4.6717 3.4575 7.5046 3.9749v3.2325h-2.638c-0.85039 0-1.5374 0.68699-1.5374 1.5374v2.049c0 0.85039 0.68704 1.536 1.5374 1.536h2.638v2.0186c0 0.85044 0.68704 1.5374 1.5374 1.5374h2.0517c0.85039 0 1.5374-0.68699 1.5374-1.5374v-2.0186h2.638c0.85039 0 1.5374-0.68566 1.5374-1.536v-2.049c0-0.85044-0.68704-1.5374-1.5374-1.5374h-2.638v-3.2325c2.8329-0.5174 5.435-1.8848 7.5046-3.9749 2.6639-2.6945 4.1395-6.3628 4.0883-10.154-0.051229-3.7038-1.5166-7.1818-4.1394-9.8149-2.6741-2.6741-6.2292-4.145-10.01-4.145-0.0023 0-0.0046-1.0246e-6 -0.0069 0-0.0023-1.1019e-6 -0.0046 0-0.0069 0zm0.006913 5.1114a9.0403 9.0403 0 0 1 9.0407 9.0393 9.0403 9.0403 0 0 1-9.0407 9.0407 9.0403 9.0403 0 0 1-9.0407-9.0407 9.0403 9.0403 0 0 1 9.0407-9.0393z" fill="#fff"/>
</svg>
