<svg width="0" height="0">
    <symbol xmlns="http://www.w3.org/2000/svg" viewBox="0 0 80 80" fill="currentColor" id="mute">
        <path d="M33.5981 11.1009L19.6967 24.9995H3.74996C1.67811 24.9995 0 26.6776 0 28.7495V51.2497C0 53.3201 1.67811 54.9998 3.74996 54.9998H19.6967L33.5981 68.8984C35.9465 71.2468 39.9996 69.5968 39.9996 66.2468V13.7525C39.9996 10.3994 35.9434 8.75559 33.5981 11.1009ZM72.1306 39.9996L79.2617 32.8683C80.2461 31.8839 80.2461 30.287 79.2617 29.3027L75.6961 25.737C74.7118 24.7526 73.1149 24.7526 72.1306 25.737L64.9994 32.8683L57.8682 25.737C56.8838 24.7526 55.287 24.7526 54.3026 25.737L50.737 29.3027C49.7526 30.287 49.7526 31.8839 50.737 32.8683L57.8682 39.9996L50.7386 47.1294C49.7542 48.1138 49.7542 49.7107 50.7386 50.6951L54.3042 54.2607C55.2885 55.2451 56.8854 55.2451 57.8697 54.2607L64.9994 47.131L72.1306 54.2623C73.1149 55.2467 74.7118 55.2467 75.6961 54.2623L79.2617 50.6966C80.2461 49.7122 80.2461 48.1153 79.2617 47.131L72.1306 39.9996Z"/>
    </symbol>
    <symbol xmlns="http://www.w3.org/2000/svg" viewBox="0 0 90 80" fill="currentColor" id="whisper">
        <path d="M33.5984 11.1016L19.6969 25H3.75C1.67812 25 0 26.6781 0 28.75V51.25C0 53.3203 1.67812 55 3.75 55H19.6969L33.5984 68.8985C35.9469 71.2469 40 69.5969 40 66.2469V13.7531C40 10.4 35.9438 8.75627 33.5984 11.1016ZM52.8484 27.9891C51.0391 27 48.7562 27.6516 47.7531 29.4657C46.7547 31.2797 47.4156 33.5594 49.2297 34.561C51.2469 35.6688 52.5 37.7547 52.5 40C52.5 42.2469 51.2469 44.3313 49.2312 45.4391C47.4172 46.4407 46.7563 48.7203 47.7547 50.5344C48.7594 52.3563 51.0437 53.0032 52.85 52.011C57.2609 49.5813 60.0016 44.9797 60.0016 39.9985C60.0016 35.0172 57.2609 30.4172 52.8484 27.9891Z"/>
    </symbol>
    <symbol xmlns="http://www.w3.org/2000/svg" viewBox="0 0 90 80" fill="currentColor" id="normal">
        <path d="M33.5984 11.1016L19.6969 25H3.75C1.67812 25 0 26.6781 0 28.75V51.25C0 53.3203 1.67812 55 3.75 55H19.6969L33.5984 68.8985C35.9469 71.2469 40 69.5969 40 66.2469V13.7531C40 10.4 35.9438 8.75627 33.5984 11.1016ZM75 40C75 30.0735 69.9906 20.9469 61.5984 15.5875C59.85 14.4719 57.5312 14.9906 56.4234 16.7531C55.3156 18.5156 55.8328 20.8485 57.5812 21.9656C63.7922 25.9328 67.5 32.6735 67.5 40C67.5 47.3266 63.7922 54.0672 57.5812 58.0344C55.8328 59.15 55.3156 61.4828 56.4234 63.2469C57.4406 64.8657 59.7234 65.6125 61.5984 64.4125C69.9906 59.0532 75 49.9282 75 40ZM52.8484 27.9891C51.0391 27 48.7562 27.6516 47.7531 29.4657C46.7547 31.2797 47.4156 33.5594 49.2297 34.561C51.2469 35.6688 52.5 37.7547 52.5 40C52.5 42.2469 51.2469 44.3313 49.2312 45.4391C47.4172 46.4407 46.7563 48.7203 47.7547 50.5344C48.7594 52.3563 51.0437 53.0032 52.85 52.011C57.2609 49.5813 60.0016 44.9797 60.0016 39.9985C60.0016 35.0172 57.2609 30.4172 52.8484 27.9891Z"/>
    </symbol>
    <symbol xmlns="http://www.w3.org/2000/svg" viewBox="0 0 90 80" fill="currentColor" id="shouting">
        <path d="M33.5984 11.1016L19.6969 25H3.75C1.67812 25 0 26.6781 0 28.75V51.25C0 53.3203 1.67812 55 3.75 55H19.6969L33.5984 68.8984C35.9469 71.2469 40 69.5969 40 66.2469V13.7531C40 10.4 35.9437 8.75624 33.5984 11.1016ZM70.0547 3.1203C68.3094 1.97499 65.9641 2.4578 64.8187 4.20624C63.6719 5.95155 64.1594 8.29687 65.9047 9.44218C76.2594 16.2375 82.4391 27.6609 82.4391 40.0016C82.4391 52.3422 76.2594 63.7656 65.9047 70.5609C64.1594 71.7047 63.6719 74.0516 64.8187 75.7953C65.9187 77.4687 68.2453 78.0703 70.0547 76.8813C82.5422 68.6844 90 54.8953 90 40C90 25.1047 82.5422 11.3172 70.0547 3.1203ZM75 40C75 30.0734 69.9906 20.9469 61.5984 15.5875C59.85 14.4719 57.5312 14.9906 56.4234 16.7531C55.3156 18.5156 55.8328 20.8484 57.5812 21.9656C63.7922 25.9328 67.5 32.6734 67.5 40C67.5 47.3266 63.7922 54.0672 57.5812 58.0344C55.8328 59.15 55.3156 61.4828 56.4234 63.2469C57.4406 64.8656 59.7234 65.6125 61.5984 64.4125C69.9906 59.0531 75 49.9281 75 40ZM52.8484 27.9891C51.0391 27 48.7562 27.6516 47.7531 29.4656C46.7547 31.2797 47.4156 33.5594 49.2297 34.5609C51.2469 35.6687 52.5 37.7547 52.5 40C52.5 42.2469 51.2469 44.3312 49.2312 45.4391C47.4172 46.4406 46.7563 48.7203 47.7547 50.5344C48.7594 52.3562 51.0437 53.0031 52.85 52.0109C57.2609 49.5812 60.0016 44.9797 60.0016 39.9984C60.0016 35.0172 57.2609 30.4172 52.8484 27.9891Z"/>
    </symbol>
</svg>
