<?xml version="1.0" encoding="utf-8"?>
<!-- Generator: Adobe Illustrator 27.0.1, SVG Export Plug-In . SVG Version: 6.00 Build 0)  -->
<svg version="1.1" id="Calque_1" xmlns="http://www.w3.org/2000/svg" xmlns:xlink="http://www.w3.org/1999/xlink" x="0px" y="0px"
	 viewBox="0 0 1000 1000" style="enable-background:new 0 0 1000 1000;" xml:space="preserve">
    <g>
        <path fill="currentColor" d="M51,517.8c5.4-11.7,12.6-20.2,21.6-27.3c11.3-9,24.5-13.2,38.5-15.5c42.4-7,84.8-14.1,127.2-20.9
            c24.2-3.8,48.5-7.1,72.7-10.4c4.4-0.6,7.7-2.2,10.7-5.5c20.5-22.1,40.8-44.4,62.1-65.8c16.9-17,38.2-25.8,62.2-27.2
            c9.8-0.6,19.6-0.7,29.5-0.7c86,0,172,0,257.9,0c14.3,0,28.6,1.1,41,8.8c8.5,5.3,16.7,11.7,23.4,19.1c14.8,16,28.7,32.9,42.8,49.5
            c2.7,3.2,5.5,4.6,9.8,4.5c13.7-0.3,27.3-0.3,41,0c33,0.9,62.1,28.5,65.2,61.4c0.4,4.5-0.7,6.3-5.3,5.7c-0.5-0.1-1,0-1.5,0
            c-15.1,0-17.1,2-17.1,16.9c0,11.3,0,22.7,0,34c0,8.6,3.9,12.6,12.4,12.7c11.8,0.2,11.8,0.2,11.3,11.8c-0.3,7.5-0.6,15-0.7,22.5
            c0,3.8-1.3,5.3-5.2,5.3c-16.7-0.2-33.3-0.2-50,0c-3.8,0-5.1-1.7-6.3-4.9c-11.8-32.3-43.9-54.4-78.9-54.5
            c-35.1-0.1-67.3,21.9-79.3,54.5c-1.4,3.7-3.3,5-7.3,5c-134.8-0.1-269.6-0.1-404.4,0c-4.3,0-6.3-1.3-8-5.4
            c-13.4-33.3-44.2-54.2-79.2-54c-35,0.1-65.6,21.1-78.9,54.5c-1.5,3.7-3.3,5-7.2,5c-33.2-0.2-66.3-0.2-99.5,0
            c-4.9,0-6.2-1.6-6.3-6.3c-0.2-11.1-0.9-22.3-1.8-33.4c-0.3-4,1.1-5.2,4.9-5.3c7.6-0.2,15.5,0.1,22.8-1.7
            c13.7-3.6,21.2-13.6,23.9-27.3c0.7-3.7-0.6-5.1-4.4-5c-11,0.2-22,0.1-33,0.1C55.9,517.8,54.1,517.8,51,517.8z M470.8,563.5
            c29.8,0,59.7,0,89.5,0c8.3,0,9.6-1.2,9.9-9.7c0-1.2,0-2.3,0-3.5c0-48.2,0-96.3,0-144.5c0-17.6-9.2-26.8-26.8-26.8
            c-30.3,0-60.7,0.1-91-0.1c-16.1-0.1-29.4,5.5-40.4,17.4c-16.8,18.3-33.9,36.3-50.7,54.6c-1.8,2-3.1,5.2-3.1,7.9
            c-0.2,27.2-0.2,54.3-0.1,81.5c0,14.9,8.3,23.2,23.2,23.2C411.1,563.5,441,563.5,470.8,563.5z M693.8,379c-17,0-34-0.1-51,0
            c-11.6,0.1-20.1,5.3-23.5,15.1c-1.4,4-1.6,8.5-1.6,12.8c-0.1,43.8-0.1,87.6-0.1,131.4c0,2,0,4,0.2,6c1,11.2,9.2,19,20.5,19.1
            c23.5,0.1,47,0.1,70.5-0.1c2,0,4.8-1.5,5.9-3.2c25.2-38.2,60.4-57.5,106.4-56.5c4.1,0.1,5.6-0.9,5.5-5.2c-0.3-13.3,0.1-26.7-0.2-40
            c-0.1-2.5-1.3-5.6-3-7.4c-18.3-20.3-36.8-40.4-55.1-60.7c-7.1-7.8-15.6-11.5-26.1-11.4C726.1,379.1,710,379,693.8,379z"/>
        <path fill="currentColor"  d="M526.1,617.4c65.8,0,131.6,0,197.4,0c6.7,0,6.7,0,6.7,6.8c0,8.7-0.2,17.3,0,26c0.1,3.5-1.3,4.9-4.7,4.6
            c-1.2-0.1-2.3,0-3.5,0c-130.6,0-261.2,0-391.9,0c-8,0-8,0-8-7.8c0-8,0.1-16-0.2-24c-0.2-4.5,1.4-5.7,5.7-5.7
            c42.7,0.1,85.3,0.1,128,0.1C479.1,617.4,502.6,617.4,526.1,617.4z"/>
        <path fill="currentColor" d="M62.1,617.4c3,0,4.6,0,6.2,0c26.2,0,52.3,0.1,78.5-0.1c4.4,0,6.3,0.9,6,5.8c-0.4,8.8-0.4,17.7-0.2,26.5
            c0.1,3.9-1.4,5.2-5.3,5.2c-18.7-0.1-37.3-0.1-56,0c-7.7,0-12.9-3.3-16.2-10.3C71.2,635.8,66.9,627.2,62.1,617.4z"/>
        <path fill="currentColor" d="M938.9,617.5c-5.3,10.8-9.7,20.5-14.8,29.8c-3.5,6.5-14.9,10-22.1,7.2c-1-0.4-2-2.2-2-3.4c-0.2-10.1-0.2-20.3-0.1-30.4
            c0-1.1,1.4-3.1,2.2-3.1C914,617.4,925.9,617.5,938.9,617.5z"/>
    </g>
</svg>
