<?xml version="1.0" encoding="utf-8"?>
<svg version="1.1" id="Calque_1" xmlns="http://www.w3.org/2000/svg" xmlns:xlink="http://www.w3.org/1999/xlink" x="0px" y="0px"
	 viewBox="0 0 1000 1000" style="enable-background:new 0 0 1000 1000;" xml:space="preserve">
    <g>
        <path fill="currentColor" d="M499.5,776.1c-103.8,0-207.6,0-311.4-0.1c-6,0-12.5-0.7-18-3.1c-13.8-5.9-20.1-17.4-20.1-32.2c-0.1-31.5,0-63,0-94.5
            c0-43.7,0-87.3,0-131c0-21.3,8.3-38.3,25.4-51.1c99.6-74.6,199.1-149.3,298.7-223.9c14.4-10.8,30.8-16.3,48.9-16.3
            c97,0,194,0,290.9,0c22,0,36.2,14.2,36.2,36.3c0,121.1,0,242.3,0,363.4c0,39,0,78,0,117c0,17.2-9.5,30-25.7,34.3
            c-3.9,1.1-8.2,1.1-12.4,1.1C707.8,776.1,603.6,776.1,499.5,776.1z M520.7,489.3c83.5,0,167,0,250.4,0c15.6,0,24.1-8.5,24.1-24.1
            c0-54.2,0-108.3,0-162.5c0-15.4-8.3-24-23.7-24c-75.8-0.1-151.6-0.1-227.4,0c-15.9,0-30,5.2-42.6,14.9
            c-12.9,10-25.9,19.9-38.8,29.9C397.1,374,331.5,424.5,265.9,475c-2.4,1.8-4.6,3.9-6.5,6.2c-2.5,3.1-1.5,5.9,2,7
            c2.9,0.9,6.2,1.1,9.3,1.1C354.1,489.3,437.4,489.3,520.7,489.3z M721.6,540.1c-17.3,0-34.6-0.1-51.9,0c-9.3,0.1-14.8,6.8-13.1,15.3
            c1.2,5.8,6.2,9.8,13.3,9.9c10.5,0.2,21,0.1,31.5,0.1c23.3,0,46.6,0,69.9,0c4.8,0,9.4-0.8,12.6-4.8c3.2-4,4-8.3,1.8-13.1
            c-2.5-5.3-6.8-7.5-12.5-7.5C755.9,540.1,738.7,540.1,721.6,540.1z"/>
    </g>
</svg>
