<?xml version="1.0" encoding="utf-8"?>
<svg version="1.1" id="Calque_1" xmlns="http://www.w3.org/2000/svg" xmlns:xlink="http://www.w3.org/1999/xlink"
	 viewBox="0 0 1000 1000" style="enable-background:new 0 0 1000 1000;" xml:space="preserve">
    <g>
        <path fill="currentColor" d="M567.8,290.7c55,0,110,0,165,0c12.9,0,17.5,4.6,17.5,17.4c0,17.6,0,35.3,0,52.9c0,7.2,2.3,9.5,9.6,9.5c20,0,40,0,60,0
            c12.1,0,16.7,4.6,16.7,16.5c0,88.6,0,177.1,0,265.7c0,12-4.6,16.5-16.6,16.5c-24.3,0-48.7,0.1-73-0.1c-4.2,0-7.2,1.2-10,4.4
            c-21.5,25.7-43.2,51.1-64.6,76.9c-3.2,3.9-6.5,5.2-11.4,5.2c-73.5-0.1-147-0.1-220.4-0.1c-45.2,0-90.3-0.1-135.5,0.1
            c-4.9,0-6.5-1.1-6.5-6.3c0.2-104,0.1-208.1,0.1-312.1c0-2,0-4,0-6c0.4-9.2,5.3-14.1,14.5-14.1c19.7-0.1,39.3,0,59,0
            c1.3,0,2.7,0,4,0c6.3-0.2,8.7-2.6,8.8-8.9c0.1-6.8,0-13.6,0-20.5c0-26.6,0-53.3,0-79.9c0-12.5,4.7-17.1,17.3-17.1
            C457.5,290.7,512.6,290.7,567.8,290.7z M484.9,443.5c-45.2,0-90.3,0-135.5,0c-5.7,0-11.3-0.1-17,0c-12.2,0.4-20.2,8.5-20.4,20.6
            c-0.1,6.5,0,13,0,19.5c0.1,6.8,3,12.4,8.7,15.9c3.6,2.2,4.5,4.6,4.4,8.5c-0.1,31.3-0.1,62.6,0,93.9c0,13.1,7.4,24.2,20.2,26.1
            c12.3,1.9,25.3,1.7,37.7,0.4c10.1-1.1,16-11.1,15.1-21c-0.9-9.5-8.7-16.9-18.7-17.6c-3-0.2-6-0.4-9-0.1c-4.2,0.3-5.4-1.4-5.4-5.5
            c0.1-25.1,0.2-50.3,0-75.4c0-4.6,1.7-5.6,5.9-5.6c11.3,0.2,22.7,0.1,34,0.1c6.6,0,6.6,0,6.6,6.6c0,30.6-0.1,61.3,0,91.9
            c0,13.4,7.5,24.4,20.6,26.4c12.2,1.8,24.9,1.6,37.2,0.3c10.1-1.1,15.9-10.8,15.1-21c-0.8-9.4-8.6-16.9-18.6-17.6
            c-3-0.2-6-0.4-9-0.1c-4.2,0.4-5.4-1.4-5.4-5.5c0.1-25.3,0.1-50.6,0-75.9c0-4.1,1.5-5.1,5.3-5.1c11.5,0.2,23,0.1,34.5,0.1
            c6.8,0,6.8,0,6.8,7c0,30.5,0,60.9,0,91.4c0,13.7,7.4,24.6,20.8,26.6c12,1.8,24.6,1.5,36.8,0.2c10.3-1.2,16.2-11,15.1-21.4
            c-0.9-9.4-8.8-16.6-18.9-17.3c-2.8-0.2-5.7-0.4-8.5-0.1c-4.2,0.4-5.5-1.2-5.5-5.4c0.1-25.3,0.1-50.6,0-75.9c0-3.9,1.3-5.2,5.2-5.2
            c11.5,0.2,23,0.1,34.5,0.1c6.8,0,6.8,0,6.8,7c0,30.5,0,60.9,0,91.4c0,13.8,7.3,24.6,20.8,26.6c12,1.8,24.6,1.5,36.8,0.2
            c10.3-1.1,16.1-11,15.1-21.4c-0.9-9.5-8.7-16.6-18.9-17.3c-2.2-0.2-4.3-0.1-6.5-0.1c-7.4,0-7.4,0-7.4-7.2c0-23.1,0-46.3,0-69.4
            c0-11-1.3-9.6,9.4-9.7c1.7,0,3.3,0,5-0.2c11.1-1.2,18.2-8.7,18.5-19.9c0.2-6.5,0.2-13,0-19.5c-0.1-2.6-0.5-5.4-1.5-7.8
            c-3.8-9.2-11.2-12.6-20.7-12.6C584.9,443.5,534.9,443.5,484.9,443.5z M750.5,656.8c7.5-1.5,15.2-2.1,22.4-4.5
            c45.7-15.3,64.3-67.7,38.8-108.7c-1.3-2-2.1-4.5-2.5-6.9c-4-22.4-8.2-44.8-11.7-67.4c-1.5-9.5-4.9-18.8-2.2-28.9
            c5-18.5-3.4-38.5-19.6-49.1c-16.5-10.7-37.7-10-53.4,1.8c-15.6,11.7-22.2,32.3-16.4,50.8c0.7,2.1,0.8,4.6,0.5,6.8
            c-3.9,23.5-7.9,46.9-12.2,70.3c-1.6,8.9-2.4,17.8-7.2,26.2C659.1,595.4,694.6,656.1,750.5,656.8z M730.3,350.7
            c0.1-25.6-20.5-46.4-46.2-46.5c-25.8-0.2-46.9,20.7-46.9,46.4c0,25.4,21,46.3,46.5,46.3C709.4,396.9,730.3,376.2,730.3,350.7z
             M405.1,350.4c-0.1,25.7,20.5,46.4,46.2,46.5c25.6,0.1,46.5-20.7,46.5-46.3c0.1-25.6-20.6-46.4-46.3-46.5
            C425.8,304.1,405.1,324.7,405.1,350.4z"/>
        <path fill="currentColor" d="M232.2,609.7c0,51.8,0,103.5,0,155.3c0,4-0.2,8-1,11.9c-2,9.3-9.4,13.8-18.4,11c-4.1-1.3-8.5-3.5-11.5-6.5
            c-22.7-22.2-45.2-44.7-67.7-67.2c-5.4-5.4-8.2-12-8.2-19.7c0-61.2,0-122.5,0-183.7c0-9.7,4.6-16.7,11.8-22.5
            c15.2-12.2,30.4-24.3,45.7-36.5c5.5-4.4,10.9-8.8,16.4-13.1c2.1-1.7,4.2-3.3,6.4-4.7c13.3-8.1,24.7-2.5,26.3,13
            c0.3,2.8,0.2,5.6,0.2,8.5C232.2,506.9,232.2,558.3,232.2,609.7z"/>
        <path fill="currentColor" d="M564.5,204.5c39,0,78,0.2,117-0.2c9.1-0.1,16.2,6,15.7,15.7c-0.2,3.8,0.1,7.7-0.2,11.5c-0.6,7.5-5.4,12.1-12.9,12.6
            c-1.5,0.1-3,0.1-4.5,0.1c-76.8,0-153.6,0-230.4,0c-2.2,0-4.4,0.2-6.5-0.4c-2.3-0.6-4.8-1.6-6.6-3.1c-6.8-5.7-6.9-27.2,0.1-32.7
            c2.7-2.1,6.9-3.5,10.4-3.5C485.9,204.4,525.2,204.5,564.5,204.5z"/>
        <path fill="currentColor" d="M285.3,609.4c0,37.8-0.1,75.5,0.1,113.3c0,5.2-1.6,6.5-6.5,6.3c-9.3-0.4-18.7-0.3-28,0c-4.1,0.1-5.5-1.1-5.4-5.3
            c0.2-20.3,0.1-40.6,0.1-60.9c0-55.2,0-110.5,0-165.7c0-7.2,0-7.2,7.4-7.2c8.7,0,17.3,0.3,26-0.1c5-0.2,6.5,1.2,6.5,6.3
            C285.2,533.9,285.3,571.7,285.3,609.4z"/>
        <path fill="currentColor" d="M655.4,770.5c-6.8,7.9-13.5,15.9-20.4,23.8c-0.7,0.8-2.4,1.1-3.7,1.3c-1.5,0.2-3,0.1-4.5,0.1c-102.8,0-205.6,0-308.4,0
            c-2.3,0-4.7,0-7-0.3c-8.2-1.1-12.6-5.7-12.7-14c-0.1-14.9-2-12.4,11.7-12.4c112.8-0.1,225.6,0,338.4,0c1.9,0,3.9,0,5.8,0
            C654.9,769.5,655.1,770,655.4,770.5z"/>
        <path fill="currentColor" d="M936.9,516.7c0,29.9,0,59.9,0,89.8c0,10.3-5.7,16.1-15.9,16.2c-3.7,0-7.3,0.1-11,0c-7.8-0.3-12.7-4.9-13.4-12.7
            c-0.2-1.7-0.1-3.3-0.1-5c0-59.1,0-118.1,0-177.2c0-13.1,4.3-17.4,17.3-17.5c2.7,0,5.3,0,8,0c9.3,0.2,15.1,6.1,15.2,15.4
            C936.9,456.1,936.9,486.4,936.9,516.7z"/>
        <path fill="currentColor" d="M883.1,520.6c0,19.1-0.1,38.3,0.1,57.4c0,4-1.1,5.2-5.1,5.1c-7.8-0.3-15.7-0.2-23.5,0c-3.3,0.1-4.7-0.8-4.7-4.5
            c0.1-38.9,0.1-77.8,0-116.8c0-3.7,1.2-5,4.9-4.9c7.8,0.2,15.7,0.2,23.5,0c3.7-0.1,4.9,1.1,4.9,4.8
            C883,481.3,883.1,500.9,883.1,520.6z"/>
        <path fill="currentColor" d="M564,277.6c-24.6,0-49.3-0.1-73.9,0.1c-4.3,0-6.1-1.1-5.7-5.6c0.3-3.1,0.3-6.3,0-9.5c-0.4-4.2,1.5-5,5.2-5
            c49.8,0.1,99.5,0.1,149.3,0c3.8,0,5.5,1,5.2,5.1c-0.3,3.3-0.3,6.7,0,10c0.4,4.1-1.4,5.1-5.2,5C614,277.5,589,277.6,564,277.6z"/>
        <path fill="currentColor" d="M484.1,489.9c-49.5,0-99,0-148.4,0c-8.7,0-10.6-1.9-10.6-10.5c0-4.7-0.1-9.3,0-14c0.1-6.1,2.4-8.4,8.5-8.5
            c15.2-0.1,30.3,0,45.5,0c84.6,0,169.3,0,253.9,0c9.5,0,11.1,1.5,11.1,10.9c0,4.5,0,9,0,13.5c-0.1,6-2.5,8.5-8.5,8.5
            c-16.3,0.1-32.7,0-49,0C552.5,489.9,518.3,489.9,484.1,489.9z"/>
        <path fill="currentColor" d="M597.5,555c0-15.5,0.2-30.9-0.1-46.4c-0.1-5.4,2.6-5.5,6.4-5.3c3.7,0.1,7.2-0.7,7.1,5.3c-0.3,25.8-0.1,51.6-0.1,77.3
            c0,12.1,4.8,16.9,16.9,17c3,0,6,0,9,0c4.1,0.1,6.9,2.2,7.2,6.2c0.3,4.1-2.4,6.8-6.3,6.9c-9.5,0.2-19,0.4-28.4-0.2
            c-7.2-0.5-11.5-6-11.5-13.3C597.5,586.6,597.5,570.8,597.5,555C597.5,555,597.5,555,597.5,555z"/>
        <path fill="currentColor" d="M338.6,555.5c0-15.6,0.2-31.3-0.1-46.9c-0.1-6,3.3-5.2,7-5.3c3.9-0.1,6.5,0,6.4,5.4c-0.3,25.9-0.1,51.9-0.1,77.8
            c0,11.4,5,16.4,16.4,16.5c3.2,0,6.3,0,9.5,0c4.1,0.1,6.8,2.2,7.1,6.2c0.3,4.1-2.4,6.8-6.3,6.9c-9.5,0.2-19,0.4-28.4-0.3
            c-7.2-0.5-11.3-5.8-11.4-13.4C338.5,586.7,338.6,571.1,338.6,555.5C338.6,555.5,338.6,555.5,338.6,555.5z"/>
        <path fill="currentColor" d="M511.2,555.6c0-15.6,0.2-31.3-0.1-46.9c-0.1-5.3,2.5-5.5,6.4-5.4c3.7,0.1,7.1-0.6,7,5.4c-0.3,25.8-0.1,51.5-0.1,77.3
            c0,12,4.9,16.9,17,16.9c3,0,6,0,9,0c4.1,0.1,6.9,2.2,7.2,6.2c0.3,4.1-2.4,6.8-6.3,6.9c-9.5,0.2-19,0.4-28.4-0.2
            c-7.2-0.5-11.5-6-11.5-13.3C511.2,586.8,511.2,571.2,511.2,555.6z"/>
        <path fill="currentColor" d="M424.9,555.4c0-15.6,0.2-31.3-0.1-46.9c-0.1-5.6,3-5.2,6.6-5.2c3.6,0,6.8-0.6,6.7,5.1c-0.3,25.3-0.1,50.6-0.1,75.9
            c0,14.4,4.2,18.6,18.8,18.6c2.5,0,5-0.1,7.5,0c4.1,0.2,6.7,2.6,6.8,6.6c0.1,3.8-2.5,6.4-6.3,6.5c-9.5,0.2-19,0.4-28.5-0.2
            c-7.2-0.5-11.4-5.9-11.4-13.4C424.9,586.7,425,571.1,424.9,555.4C424.9,555.4,424.9,555.4,424.9,555.4z"/>
        <path fill="currentColor" d="M749.6,642.6c-33.4-0.5-59.5-27.4-58.9-60.8c0.6-32.8,27.4-58.8,60.3-58.4c33.1,0.4,59.5,27.4,59,60.3
            C809.4,616.8,782.6,643,749.6,642.6z M750.4,616.1c18.3-0.1,33.1-14.9,33.1-33.1c0-18.3-14.8-33-33-33.1
            c-18.5-0.1-33.4,14.8-33.2,33.3C717.3,601.5,732.1,616.1,750.4,616.1z"/>
        <path fill="currentColor" d="M707.2,523.9c3.6-20.6,6.9-39.8,10.3-59.9c21.9,16.8,43.2,17.2,65.4-0.1c3.5,20.1,6.8,39.3,10.4,60
            c-14-9.3-28-14-43.4-13.9C734.8,510,721,514.8,707.2,523.9z"/>
        <path fill="currentColor" d="M749.5,463.3c-18.3-0.4-32.7-15.4-32.3-33.7c0.4-18.3,15.5-32.9,33.6-32.5c18.3,0.4,32.9,15.4,32.7,33.6
            C783.2,449.1,768,463.7,749.5,463.3z M750.4,410.5c-10.9-0.1-19.9,8.6-20,19.4c-0.2,11,8.7,20.2,19.7,20.3
            c11,0.1,19.9-8.9,19.9-19.9C770,419.3,761.3,410.5,750.4,410.5z"/>
        <path fill="currentColor" d="M684.1,383.7c-18.4,0.1-33.3-14.7-33.3-33.2c0-18.3,14.6-33.1,32.8-33.1c18.3-0.1,33.4,14.9,33.4,33.2
            C717,368.7,702.2,383.6,684.1,383.7z M674.6,349.2c0.1,0.9,0.2,1.8,0.3,2.7c-2.9,2.3-5.9,4.4-8.5,6.9c-2.9,2.8-3.4,6.1-0.6,9.3
            c2.5,2.9,6.4,2.9,9.8,0c2.8-2.4,5.5-6.9,8-6.8c3,0.1,5.7,4.4,8.6,6.8c3.4,2.9,7.3,3,9.8,0c2.7-3.2,2.1-6.4-0.5-9.4
            c-2.4-2.7-6.7-5.4-6.7-8.1c0-2.7,4.2-5.4,6.6-8.2c2.9-3.3,3.2-7.4,0.4-9.8c-3.3-2.9-6.7-2.4-9.8,0.5c-2.6,2.3-5.2,6.6-7.6,6.6
            c-2.8-0.1-5.5-4-8.2-6.4c-3.7-3.2-7.5-3.5-10.2-0.6c-3,3.4-2.3,6.8,0.7,9.7C669.1,344.9,671.9,347,674.6,349.2z"/>
        <path fill="currentColor" d="M484.5,350.8c-0.1,18.2-14.9,33-33.1,32.9c-18.3,0-33.3-15.1-33.2-33.4c0.1-18.3,15.3-33.1,33.7-32.9
            C470,317.5,484.6,332.5,484.5,350.8z M451.7,358.1c3,4,4.8,6.8,7.1,9.2c3.6,3.7,7.8,4,10.5,1.1c2.7-2.8,2.5-6.6-1-10.2
            c-2.4-2.4-5.3-4.4-9.2-7.6c4.1-3.3,6.8-5.2,9.2-7.6c3.7-3.7,3.8-7.8,0.8-10.5c-2.9-2.6-6.6-2.2-10.2,1.2c-2.5,2.3-4.9,4.7-8.1,7.9
            c-2.7-3.1-4.7-5.8-7-8.1c-3.4-3.4-7.4-3.5-10.2-0.8c-2.7,2.7-2.3,6.7,0.9,10.2c2.2,2.4,6.3,5,6.2,7.3c-0.1,2.7-3.9,5.3-6.2,7.8
            c-3.2,3.6-3.6,7.5-1,10.2c2.8,2.9,6.9,2.7,10.6-1C446.3,365,448.3,362.3,451.7,358.1z"/>
        <path fill="currentColor" d="M770.1,583.1c0,11.1-9,19.8-20.2,19.7c-10.7-0.1-19.5-9.2-19.5-19.9c0.1-11,9.2-19.8,20.2-19.7
            C761.5,563.3,770.1,572.2,770.1,583.1z"/>
        <path fill="currentColor" d="M750.3,436.7c-3.7,0-6.7-3-6.6-6.6c0.2-3.9,2.5-6.1,6.3-6.4c3.5-0.3,6.8,2.9,6.9,6.4C757,433.6,754,436.7,750.3,436.7z"/>
    </g>
</svg>
