<?xml version="1.0" encoding="utf-8"?>
<!-- Generator: Adobe Illustrator 27.0.1, SVG Export Plug-In . SVG Version: 6.00 Build 0)  -->
<svg version="1.1" id="Calque_1" xmlns="http://www.w3.org/2000/svg" xmlns:xlink="http://www.w3.org/1999/xlink" x="0px" y="0px"
	 viewBox="0 0 1000 1000" style="enable-background:new 0 0 1000 1000;" xml:space="preserve">
    <g>
        <path fill="currentColor" d="M499.7,763.1c-110.6,0-221.1,0-331.7,0c-12.9,0-22.2-6.3-25.4-17.6c-0.7-2.4-0.9-4.9-0.9-7.4c0-58.8,0-117.5-0.1-176.3
            c0-8.1,3-14.4,8.7-19.9c86-82.5,172-165.1,258-247.7c16.8-16.1,33.6-32.3,50.4-48.5c6-5.8,12.7-8.8,21.4-8.8
            c117.4,0.2,234.8,0.2,352.1,0c14.3,0,26.1,12.3,26,26.1c-0.3,158-0.2,316-0.2,474c0,16.2-9.9,26-26.2,26
            C721.2,763.1,610.5,763.1,499.7,763.1z M500,715.1c101.5,0,203.1,0,304.6,0.1c4.8,0,6.2-1.3,6.1-6.1c-0.1-139.2-0.1-278.3,0-417.5
            c0-5.2-1.6-6.3-6.5-6.3c-104,0.1-208.1,0.1-312.1,0c-3.8,0-6.5,1-9.3,3.7C386.5,381.5,290,474.1,193.5,566.5
            c-2.9,2.8-4.1,5.5-4.1,9.5c0.1,44.1,0.1,88.2,0.1,132.3c0,6.7,0,6.7,6.9,6.7C297.6,715.1,398.8,715.1,500,715.1z"/>
        <path fill="currentColor" d="M690.8,406.1c0,4.5-3.3,10.1-8.2,14.9c-36.6,36.1-73.2,72.2-109.8,108.3c-32.2,31.8-64.4,63.6-96.7,95.3
            c-13,12.8-33.4,9-39.7-7.6c-3.7-9.8-1.5-18.6,6-26.1c36.7-36.2,73.5-72.4,110.2-108.7c32.2-31.8,64.4-63.6,96.6-95.4
            c9.1-9,21.2-10.6,30.9-4.2C687.4,387.6,691,394.6,690.8,406.1z"/>
        <path fill="currentColor" d="M763,570.7c-0.2,5.4-2.3,11.1-6.7,15.7c-24.3,24.9-48.4,50-72.9,74.6c-9.5,9.6-24.4,9-33.6-0.4c-9-9.3-9.1-23.8,0.1-33.3
            c23.8-24.6,47.8-49.2,71.8-73.7c7.5-7.6,16.5-9.7,26.6-5.8C756.9,551.2,762.9,560.2,763,570.7z"/>
        <path fill="currentColor" d="M500,331c8.8,0.6,16.3,5.2,20.4,14.4c4.1,9.3,2.6,18.1-4.2,25.5c-8.8,9.6-18,18.7-27.1,28c-14.3,14.7-28.5,29.4-42.9,43.9
            c-6.7,6.8-14.9,9.1-24.3,6.2c-9.1-2.9-14.4-9.2-16.4-18.4c-1.6-7.5,0.4-14.5,5.6-19.9c23.5-24.5,47.2-48.8,71-73
            C486.6,333,492.3,331,500,331z"/>
    </g>
</svg>
