<?xml version="1.0" encoding="utf-8"?>
<!-- Generator: Adobe Illustrator 27.0.1, SVG Export Plug-In . SVG Version: 6.00 Build 0)  -->
<svg version="1.1" id="Calque_1" xmlns="http://www.w3.org/2000/svg" xmlns:xlink="http://www.w3.org/1999/xlink" x="0px" y="0px"
	 viewBox="0 0 1000 1000" style="enable-background:new 0 0 1000 1000;" xml:space="preserve">
    <g>
        <path fill="currentColor" d="M768.2,565c0,91.2,0,182.3,0,273.5c0,12.4-5.3,21.2-15.9,25.2c-3.3,1.3-7.2,1.6-10.8,1.6c-161,0.1-322,0.1-483,0
            c-16.7,0-26.7-10.1-26.7-26.8c0-182.3,0-364.6,0-547c0-17.1,10.4-27.1,28.2-27.1c108,0,216,0,324,0c52.3,0,104.7,0,157,0
            c14,0,23,6.7,26.5,19.7c0.8,2.8,0.7,5.9,0.7,8.9C768.2,383.7,768.2,474.3,768.2,565z M718.8,319c-0.2-7.9-6.6-11.5-11.9-8.3
            c-2,1.2-3.6,2.9-5.3,4.6c-16,16.1-31.8,32.3-48,48.2c-2,2-5.4,3.4-8.2,3.4c-97.1,0.2-194.3,0.2-291.4,0c-2.8,0-6.1-1.6-8.2-3.5
            c-8.8-8.4-17.2-17.2-25.8-25.9c-8.4-8.5-16.8-17.1-25.4-25.5c-3.4-3.3-8.2-3.2-11.3-0.4c-3.2,3-3.2,7.9,0,11.7
            c1.1,1.3,2.3,2.4,3.5,3.6c16,16.1,32.1,32,47.9,48.3c1.9,2,3.4,5.4,3.4,8.2c0.2,112.8,0.2,225.6,0,338.4c0,2.7-1.2,5.9-2.9,8
            c-9.9,12.3-20.2,24.4-30.4,36.5c-7.3,8.7-14.6,17.3-21.7,26.1c-3.2,4-2.8,8.7,0.6,11.6c3.5,3,7.9,2.6,11.6-1.1
            c1.1-1.1,2-2.2,2.9-3.4c16.1-19.3,32.3-38.5,48.4-57.9c2.3-2.8,4.8-4.1,8.5-4c96.6,0.1,193.3,0.1,289.9,0c3.7,0,6.2,1.3,8.5,4.1
            c9.2,11.2,18.5,22.3,27.8,33.4c7.7,9.2,15.3,18.5,23.1,27.6c3.4,4,8.1,4.4,11.5,1.6c3.6-2.9,3.9-7.8,0.8-12
            c-0.6-0.8-1.3-1.5-1.9-2.3c-16.6-19.8-33.2-39.5-49.6-59.5c-2-2.4-3.4-6.2-3.4-9.3c-0.2-112.3-0.1-224.6-0.2-336.9
            c0-4,1.1-6.8,3.9-9.7c16.4-16.3,32.7-32.8,48.9-49.3C716.5,323.2,717.9,320.4,718.8,319z"/>
        <path fill="currentColor" d="M412.6,247.4c2.2-5.9,4.3-11.6,6.4-17.3c8.6-22.7,17-45.5,25.7-68.2c6.7-17.4,21.4-27.3,40.2-27.3c62.7,0,125.3,0,188,0
            c4,0,8,0,12,0c16.8,0.2,28.5,10.1,30.7,26.8c3.6,27.3,6.6,54.6,9.9,81.9c0.5,3.7-0.6,5.2-4.4,5.1c-11-0.1-22-0.1-33,0
            c-3.1,0-4.4-1.3-4.7-4.3c-2.2-18.2-4.5-36.4-6.8-54.5c-2-16-12.8-25.8-29-25.8c-44.8-0.1-89.7,0.4-134.5-0.2
            c-18.7-0.2-32.6,7.7-39.3,27.8c-6,18-13.1,35.6-19.9,53.3c-0.6,1.6-2.9,3.6-4.5,3.6c-11.5,0.3-23,0.2-34.5,0.1
            C414.4,248.4,413.8,247.9,412.6,247.4z"/>
        <path fill="currentColor" d="M308.8,183.9c-18.3,0-36.6-0.1-54.9,0.1c-4.5,0-6.3-1.2-6.1-5.9c0.3-10.6,0.2-21.3,0-32c-0.1-4.2,1.5-5.5,5.6-5.5
            c37.1,0.1,74.3,0.1,111.4,0c4,0,5.7,1.2,5.6,5.4c-0.2,10.8-0.2,21.6,0,32.5c0.1,4.3-1.6,5.5-5.6,5.4
            C346.1,183.8,327.5,183.9,308.8,183.9z"/>
        <path fill="currentColor" d="M308.7,248.5c-9.5,0-19-0.1-28.5,0.1c-4,0.1-5.2-1.4-5.2-5.2c0.2-12.7,0.2-25.3,0-38c0-3.7,1.1-5,4.9-5
            c19.3,0.1,38.7,0.1,58,0c3.8,0,4.9,1.3,4.8,5c-0.2,12.7-0.2,25.3,0,38c0.1,4.2-1.5,5.4-5.5,5.3
            C327.7,248.3,318.2,248.5,308.7,248.5z"/>
        <path fill="currentColor" d="M354.2,552.5c0-54,0-108,0-161.9c0-7.1,0-7.1,7.3-7.1c92.3,0,184.6,0,276.9,0c7.1,0,7.1,0,7.1,7.3c0,108,0,215.9,0,323.9
            c0,6.8,0,6.9-7.1,6.9c-92.5,0-184.9,0-277.4,0c-6.8,0-6.9-0.1-6.9-7.1C354.2,660.4,354.2,606.4,354.2,552.5z"/>
    </g>
</svg>
