<?xml version="1.0" encoding="utf-8"?>
<!-- Generator: Adobe Illustrator 27.0.1, SVG Export Plug-In . SVG Version: 6.00 Build 0)  -->
<svg version="1.1" id="Calque_1" xmlns="http://www.w3.org/2000/svg" xmlns:xlink="http://www.w3.org/1999/xlink" x="0px" y="0px"
	 viewBox="0 0 1000 1000" style="enable-background:new 0 0 1000 1000;" xml:space="preserve">
    <g>
        <path fill="currentColor" d="M490.1,89c16.7,0,33.3,0,50,0c10.4,0,15.2,5.3,14.3,15.6c-0.5,5.6-0.9,11.3-1.2,16.9c-0.3,6,3.4,10.3,8.8,10.7
            c5.4,0.4,9.6-3.5,10.2-9.4c0.6-6.3,0.9-12.6,1.7-18.9c1-8.6,8.1-13.2,16.3-10.1c25.2,9.5,50.3,19.3,75.5,29c7,2.7,14,5.4,20.9,8.2
            c8,3.3,10.7,10.5,6.9,18.4c-2.5,5.1-5,10.1-7.4,15.3c-2.9,6.1-1.4,11.6,3.7,14.2c5.1,2.6,10.4,0.4,13.5-5.7
            c2.7-5.2,5-10.5,7.7-15.7c4.5-8.5,12.7-10.2,19.8-3.8c25.3,22.9,50.6,45.9,75.7,69c6.7,6.1,6.4,13.7-0.3,20
            c-4.1,3.9-8.4,7.6-12.4,11.6c-4.7,4.6-5.1,9.9-1.2,14.2c3.9,4.1,9.3,4.2,14.3-0.2c4.2-3.8,8.2-7.8,12.4-11.6
            c7.7-6.8,15.9-5.4,20.5,3.7c15.3,30.3,30.4,60.7,45.5,91.1c3.9,7.9,0.8,15.3-7.4,18.6c-5.1,2.1-10.3,3.9-15.3,6.1
            c-5.9,2.5-8.3,7.5-6.3,12.8c1.9,5.1,7.5,7.2,13.4,5c5.1-2,10.2-4.1,15.3-6.1c9.3-3.6,16.8,1,17.8,10.9c3.2,33.8,6.4,67.6,9.5,101.4
            c0.8,8.4-4.7,14.4-13.3,14.6c-5.5,0.1-11,0-16.5,0.2c-6.1,0.2-9.9,4-9.9,9.6c0,5.7,3.8,9.3,10,9.4c5.2,0,10.3-0.1,15.5-0.1
            c10.9-0.1,16.3,6.8,13.4,17.3c-5.6,20-11.4,40-17.1,60c-3.4,12-6.9,24-10.3,36c-2.8,9.9-9.8,13.3-19.6,9.6
            c-4.7-1.8-9.3-3.6-14.1-5.1c-5.2-1.6-9.8,0.8-11.7,5.7c-1.8,4.5,0,9.5,4.8,11.7c4.7,2.2,9.6,3.8,14.4,5.6
            c10.6,4,13.2,12.2,6.4,21.2c-20,26.6-40.1,53.2-60.2,79.7c-6.3,8.3-13.6,8.8-21.3,1.9c-3.4-3-6.6-6.1-10.1-8.9
            c-4.8-3.9-10.2-3.6-13.8,0.7c-3.5,4.1-3.2,9.3,1,13.4c3.6,3.5,7.5,6.6,11.1,10c7.1,6.7,6.3,15.3-2,20.5
            c-28.8,18-57.7,35.8-86.7,53.6c-7.7,4.7-15.1,2.4-19.2-5.6c-2.1-4-4-8.1-6.2-12c-3.1-5.5-8.1-7.2-13-4.6c-5.1,2.7-6.6,7.9-3.8,13.7
            c2.2,4.6,4.8,9.1,6.8,13.9c2.8,6.8-0.5,14-7.7,15.6c-11.7,2.7-23.5,4.8-35.3,7c-21.9,4.1-43.9,8.1-65.8,12.2
            c-10,1.9-16.6-2.9-17.5-13c-0.4-4.5-0.7-9-1.6-13.4c-1-5-5.2-7.9-9.7-7.5c-5,0.5-9,4.6-8.8,9.8c0.1,4.3,0.9,8.6,1.3,12.9
            c0.9,11.7-4.9,17.1-16.7,15.1c-10.2-1.7-20.3-3.8-30.5-5.7c-21.8-4.1-43.5-8.3-65.3-12.1c-11.9-2.1-16.2-8.6-12.7-20.2
            c1-3.2,2-6.4,2.7-9.6c1.3-6-1.6-11.2-6.9-12.6c-5-1.3-9.9,1.9-11.6,7.7c-1.2,4-2.2,8-3.4,12c-2.6,9.1-10.6,12.8-18.6,7.9
            c-29.5-18.1-59-36.3-88.4-54.6c-6.3-4-7.5-11.8-3.2-18c2.7-3.8,5.6-7.4,8.2-11.3c3.4-5,2.7-10.6-1.5-13.8
            c-4.5-3.4-9.6-2.6-13.6,2.3c-2.6,3.2-5,6.7-7.5,10c-6.5,8.5-15,8.6-21.6,0c-17-22.2-33.8-44.6-50.6-66.9c-3.5-4.6-7.1-9.2-10.5-14
            c-5-7-3.4-14.7,3.8-19.3c3.8-2.4,7.7-4.7,11.4-7.3c5.1-3.5,6.3-8.9,3.3-13.4c-3.1-4.7-8.2-5.7-13.6-2.6c-3.7,2.2-7.3,4.7-11,6.9
            c-8.9,5.3-17,2.3-19.9-7.6c-4.6-15.6-8.9-31.3-13.4-47c-4.7-16.5-9.3-33-14.1-49.4c-2.8-9.7,1.7-16.8,11.7-18.3
            c4.1-0.6,8.2-1.4,12.3-2.4c6.2-1.5,9.5-6.3,8.3-11.6c-1.2-5.4-6.2-8.2-12.5-7c-5.1,0.9-10.1,2.2-15.2,2.7
            c-8.4,0.8-14.2-4.9-13.5-13.3c3.1-34.5,6.4-69,9.7-103.4c0.7-7.4,7.5-12.2,15.1-10.9c4.8,0.8,9.5,1.8,14.2,2.7
            c6.4,1.2,11.5-1.7,12.8-7.4c1.2-5.2-2.2-9.8-8.6-11.3c-4.5-1.1-9.2-1.7-13.7-2.6c-10.9-2-14.6-9.5-9.7-19.4
            c9.9-20,19.9-39.9,29.8-59.8c4.8-9.7,9.6-19.4,14.4-29c4.9-9.8,11.9-11.7,21.3-6c4.1,2.5,8.2,5.1,12.4,7.4
            c5.2,2.9,10.9,1.7,13.6-2.9c2.8-4.5,1.3-10.1-3.7-13.4c-4.6-3-9.4-5.6-14-8.6c-8-5.1-8.9-13.7-1.9-20.1
            c25.1-23.1,50.4-46.1,75.7-69c6.4-5.8,14.1-4.9,19.6,1.9c3.4,4.3,6.7,8.7,10.1,13c4,5,9.6,5.9,14,2.5c4.4-3.4,4.9-9,1-14.2
            c-3.3-4.4-6.8-8.7-10-13.1c-5.8-8-3.5-16.1,5.6-19.7c31.5-12.3,62.9-24.5,94.5-36.6c9.1-3.5,16,0.2,18.8,9.6
            c1.5,4.9,2.8,9.9,4.3,14.9c2,6.4,7,9.7,12.3,8.2c5.5-1.5,7.9-6.5,6.2-13.3c-1.5-5.6-3.3-11.2-4.9-16.8c-2.4-8.5,2.7-15.6,11.5-15.6
            C455.5,88.9,472.8,89,490.1,89z M498.6,803.9c167.8,0.8,304.5-134.6,305.5-302.5C805,334.9,669.4,197.1,503.6,196
            C334,195,196.9,329.6,195.9,498.2C194.8,665.9,330.7,803.1,498.6,803.9z"/>
        <path fill="currentColor" d="M500.5,215.1c157.3,0.2,285.1,128.7,284.4,285.8c-0.7,157.9-128.5,284.4-286.7,284C342,784.4,215,656.2,215.1,499.3
            C215.2,342.4,343.3,214.9,500.5,215.1z M264.2,499.7c0,128.4,103.3,235.9,235.8,235.7c130.4-0.2,236-105.7,235.5-234.4
            c-0.5-132-105.5-236.7-236.8-236.2C369.4,265.3,263.6,371.2,264.2,499.7z"/>
        <path fill="currentColor" d="M714.3,539.2c-5.5,16.3-10.7,31.8-15.9,47.4c-1.1,3.2-3.4,2.5-5.8,1.9c-18.3-4.3-36.6-8.8-54.9-12.9
            c-40.3-9-81.8,11.9-98.5,49.5c-4.7,10.6-7.2,21.7-7.7,33.3c-0.7,17-1.8,33.9-2.5,50.9c-0.2,4-1.6,5.7-5.7,5.7
            c-15.1-0.1-30.3-0.1-45.4,0.1c-3.9,0-5.1-1.8-5.3-5.4c-1.2-18.9-2.4-37.9-3.9-56.8c-4.1-50.4-53.7-87.6-103.3-77.1
            c-19.2,4.1-38.1,9.3-57.1,14.4c-3.8,1-5.6,0.2-6.7-3.4c-4.5-14.8-9-29.5-13.6-44.3c-1-3.3,0.1-4.7,3.2-5.9
            c17.7-6.7,35.6-13.3,53-20.7c49.6-21.1,68.7-78.4,41.7-125.3c-8.8-15.3-18.3-30.2-27.9-45c-2.6-4.1-3-6.7,1.4-9.7
            c12.3-8.3,24.4-16.7,36.5-25.2c3.5-2.5,5.4-1.3,7.7,1.6c10.9,13.9,21.8,27.7,32.9,41.5c23.7,29.3,59.5,40.5,95.5,29.6
            c16.6-5,30.1-14.7,41.3-27.7c11-12.7,22.1-25.4,33-38.2c2.2-2.6,3.9-3.6,7-1.3c9,6.6,18.1,12.9,27.3,19.3c3.2,2.2,3,4.4,1.1,7.5
            c-9.1,14.9-18,30-26.8,45c-29.9,50.9-6.9,111.6,49,130.4c15.4,5.2,30.7,11.1,45.9,16.8C711.3,535.8,712.4,537.5,714.3,539.2z
             M505.2,585.7c47.6-0.1,85.8-38.2,85.8-85.6c0-47.6-38.5-85.9-86.3-85.7c-47.2,0.2-85.3,38.5-85.3,85.6
            C419.4,547.3,457.9,585.8,505.2,585.7z"/>
        <path fill="currentColor" d="M285.4,517.9c-13.8-35.6,19.5-134.3,55-163.1c0.7,0.6,1.5,1.1,2,1.8c9.1,14.5,18.5,28.9,27,43.7
            c21.2,36.9,5.9,81.8-33.4,98c-15.8,6.5-31.9,12.5-47.9,18.7C287.2,517.4,286.3,517.6,285.4,517.9z"/>
        <path fill="currentColor" d="M688,607.6c-32.2,54.1-78.3,87.9-138.9,103.1c-0.4-1.5-0.9-2.4-0.8-3.3c1-18.4,0.9-37,3.2-55.3c4.6-37,36.7-62.7,73.8-59.1
            c12.7,1.2,25,5.2,37.5,7.9c6.5,1.4,12.9,3.1,19.4,4.7C683.9,606.1,685.5,606.7,688,607.6z"/>
        <path fill="currentColor" d="M313.6,608.4c7-1.8,14-3.7,21.1-5.5c11.8-3,23.5-6.5,35.4-8.6c38.7-7,75.3,20.3,79.4,59.5c1.9,17.7,2.7,35.5,3.9,53.3
            c0.1,1.1-0.1,2.2-0.2,3.4C412.2,710.4,323.8,646,313.6,608.4z"/>
        <path fill="currentColor" d="M658.8,352.9c41.7,46.9,60.4,101,57,164c-7.6-2.8-14.3-5.1-20.9-7.6c-12.4-4.7-25.4-8.4-37.1-14.5
            c-34.9-18-47.1-58.8-28.3-93.4c8.4-15.5,17.8-30.4,26.8-45.6C656.8,355,657.6,354.3,658.8,352.9z"/>
        <path fill="currentColor" d="M591.8,305.1c-2.8,3.2-5.3,6.1-7.8,8.9c-8.7,10.1-17.3,20.2-26.2,30.2c-29.2,32.9-77.7,32.2-105.7-1.7
            c-11.2-13.6-22-27.5-33.7-42.1c14.5-6.9,29.6-10.5,44.8-13.4C514.4,277.3,564.2,290.4,591.8,305.1z"/>
        <path fill="currentColor" d="M438.6,500c0-36.6,29.8-66.5,66.3-66.6c37-0.1,67.3,30,67.2,66.9c-0.1,36.6-30.4,66.5-67.2,66.4
            C468.4,566.5,438.6,536.6,438.6,500z M546.5,500.2c0.1-23-18.1-41.3-41-41.4c-23-0.1-41.3,18-41.5,40.9
            c-0.2,22.8,18.1,41.3,41,41.4C527.9,541.3,546.4,523.1,546.5,500.2z"/>
    </g>
</svg>
